<svg xmlns="http://www.w3.org/2000/svg" width="1772.534" height="716.489" viewBox="0 0 1772.534 716.489">
  <defs>
    <style>
      .a {
        fill: #fff;
      }

      .b {
        fill: #aef;
      }

      .c {
        fill: #446ba9;
      }

      .d {
        fill: #00c7e6;
      }

      .e {
        fill: #001321;
      }
    </style>
  </defs>
  <title>cnfci-horizontal-color</title>
  <g>
    <path class="a" d="M201.139,316.688s-52.076,16.655-84.433,32.393L49.125,394.853S27.17,413.783,12.608,446.6c0,0-15.122,33.268-10.977,65.193s17.138,58.356,28.564,68.383c0,0,25.311,30.172,77.176,36.4,0,0,13.386,26.853,24.982,39.382a166.49,166.49,0,0,0,58.7,40.661c27.668,11.313,65.184,18.575,82.555,19.155s64.521-2.352,94.092-19.043,42.349-30.246,42.349-30.246,35.125,18.24,87.261,20.847,91.3-22.872,97.61-28.819,33.309-22.882,46.2-52.86,11.061-45.871,10.5-53.375c0,0,48.595-7.975,70.669-36.014,0,0,22.714-25.479,20.315-63.549s-16.558-62.774-23.994-73.589-15.836-23.5-58.384-43.979l-96.061-22.439H221.95Z" transform="translate(-0.233)"/>
    <path class="b" d="M53.708,598.847s27.275,16.815,53.662,17.731c0,0-14.615-44.491-6.556-83.65C100.814,532.928,72.2,545.541,53.708,598.847Z" transform="translate(-0.233)"/>
    <line class="b" x1="694.852" y1="537.765" x2="654.656" y2="551.695"/>
    <path class="b" d="M617.743,639.081s-109.962,61.663-178.687-19.074c0,0-3.565,17.685-22.376,38.806-3.391,5.26-7.55,5.232-5.569,7.92,2.269,3.08,8.892,3.278,13.16,5.83,21.34,10.087,69.317,16.863,95.751,14.307C579.392,682.08,617.743,639.081,617.743,639.081Z" transform="translate(-0.233)"/>
    <path class="b" d="M634.815,503.315s15.1,27.154,16.8,48.964c0,0,29.393-1.376,56.426-22.819C708.039,529.46,682.394,509.793,634.815,503.315Z" transform="translate(-0.233)"/>
    <g>
      <path class="c" d="M738.976,422.131c-18.914-77.5-90.611-91.572-91.332-91.7a.88.88,0,0,0-1.037.714.889.889,0,0,0,.713,1.037c.711.131,71.291,14.023,89.927,90.376,8.6,35.234,5,64.422-10.712,86.753-24.37,34.652-69.9,41.338-74.634,41.944a111.582,111.582,0,0,0-16.33-47.518.89.89,0,0,0-1.513.939c40.691,65.461,1.584,125.169-44.269,156.411-75.172,51.214-167.494,10.247-178.48,5.05,13.345-13.624,23.218-29.087,28.323-45.005a.891.891,0,1,0-1.7-.543c-9.454,29.48-35.567,57.41-69.848,74.714C321.67,718.726,264.7,721.022,207.667,701.77c-70.434-23.777-95.334-68.147-103.82-101.182-9.208-35.84-1.648-66.475-1.571-66.781a.89.89,0,0,0-1.725-.438c-.079.31-7.745,31.32,1.551,67.59a136.421,136.421,0,0,0,4.7,14.743,132.134,132.134,0,0,1-48.672-15.3C35.55,587.781,7.584,561.911,2.565,510.348-4.046,442.43,50.982,394.079,51.493,393.622A.89.89,0,1,0,50.3,392.3c-.517.464-56.213,49.391-49.512,118.227,5.1,52.363,33.553,78.643,56.527,91.47a133.376,133.376,0,0,0,50.183,15.56c19.682,49.413,64.054,73.907,99.594,85.906a239.092,239.092,0,0,0,76.35,13.032c30.525,0,59.6-6.559,85.444-19.6a161.765,161.765,0,0,0,41.084-29.421c5.145,2.483,44.929,20.863,93.051,20.863,28.162,0,59.188-6.3,87.767-25.775,49.191-33.514,64.2-73.953,61.265-109.529,4.585-.582,51.035-7.3,75.927-42.682C744.006,487.571,747.706,457.893,738.976,422.131Z" transform="translate(-0.233)"/>
      <path class="c" d="M117.52,349.607a.886.886,0,0,0,.363-.078c.7-.314,72.407-32.335,97.918-35.045a.89.89,0,1,0-.188-1.771c-25.793,2.739-95.582,33.9-98.459,35.191a.89.89,0,0,0,.365,1.7Z" transform="translate(-0.233)"/>
    </g>
    <path class="d" d="M616.115,301.17c-43.634-14.248-94.371,0-94.371,0l-.042.027a135.934,135.934,0,0,0,34.069-35.1c21.372-32.058,45.99-17.1,45.99-17.1-22.992,36.313,47.205,50.134,37.517-3.063-8.161-44.809-70.038-44.184-111.871,2.4-35.539,39.575-74.845,30.87-74.845,30.87.248-.217.487-.433.733-.65l10.8-5.784,2.96-1.585s28.714-17.382,40.323-76.318C518.953,136.131,497.07.879,360.436.879c-.105,0-.21,0-.315,0-.4,0-.8-.017-1.2-.017-.217,0-.426.008-.643.009q-3.064-.009-6.133.086c-.293.008-.581.021-.873.03-.867.031-1.734.078-2.6.111C219.5,6.045,199.113,137.288,210.456,194.868c11.61,58.936,43.6,76.436,43.6,76.436,8.646,4.345,11.614,10.07,12.242,15.237,1.381,11.367-14.875,19.844-41,3.977-34.164-20.752-74.7-64.866-117.927-44.636-8.413,3.937-19.4,9.926-27.9,25.034-7.316,14.137-6.065,33.122-1.027,41.652,15.116,25.588,69.9,26.139,68.757,2.828-1.516-31.05-35.4-15.173-35.4-15.173s-2.375-28.142,32.058-22.205,42.751,48.631,94.985,49.867c0,0-51.055,28.5-97.36,22.559s-82.677-1.688-89.475,31.931c-10.612,52.486,51.628,62.454,76.415,55.93,43.423-11.429-1.46-59.414-17.409-20.6,0,0-32.8-7.541-24.147-29.268,10.359-26.009,103.707,27.616,161.475-33.245,0,0-29.012,23.15-20.184,67.677,6.795,34.273-51.166,64.5-58.29,42.458,0,0,27.724-21.572,1.489-32.757-26.278-11.2-52.932,57,1,66.288,50.528,8.7,83.112-23.746,92.611-70.052s43.5-63.19,43.5-63.19S266.154,422.87,280.4,484.611s87.629,83.668,112.2,40.369c23.239-40.95-36.213-48.68-36.213-10.686,0,0-43.931,4.749-35.62-49.867,8.251-54.221,50.432-47.606,66.145-111.4-1.731,7.738-7.909,46.973,33.589,85.279,46.305,42.743,40.95,93.277,21.953,108.712,2.83,2.354-18.869-18.312-30.933-2.287-18.866,25.061,18.524,46.739,45.216,28.929s46.876-65.3,20.755-112.8c-12.458-22.652-20.858-49.882-26.244-72.184h0c31.934,109.772,115.886,104.835,149.725,77.23s-4.233-62.726-25.191-43.152c-13.288,12.411-1.523,26.233-1.523,26.233-31.167,20.481-45.415-.89-50.758-34.729s-31.871-58.246-31.871-58.246h0c13.221,1.367,34.516-2.6,71.052-16.554,79.253-30.277,76.582,32.8,76.582,32.8-46.323,6.165-4.958,67.949,24.761,21.673C684.178,362.56,659.749,315.418,616.115,301.17Z" transform="translate(-0.233)"/>
    <path class="a" d="M541.178,243.2s57.253-35.693,89.032-7.565c0,0-7.632-19.817-38.172-16.86S541.178,243.2,541.178,243.2Z" transform="translate(-0.233)"/>
    <ellipse class="e" cx="425.978" cy="176.502" rx="25.824" ry="18.7" transform="translate(50.24 444.095) rotate(-57.981)"/>
    <ellipse class="e" cx="285.027" cy="176.502" rx="18.7" ry="25.824" transform="translate(-50.454 177.973) rotate(-32.019)"/>
    <circle class="a" cx="285.547" cy="164.747" r="4.737"/>
    <circle class="a" cx="435.149" cy="164.747" r="4.737"/>
    <circle class="c" cx="248.111" cy="94.41" r="12.467"/>
    <circle class="c" cx="267.343" cy="58.258" r="12.108"/>
    <circle class="c" cx="295.11" cy="35.406" r="9.564"/>
    <circle class="c" cx="283.08" cy="92.709" r="7.204"/>
    <circle class="c" cx="248.111" cy="128.991" r="10.538"/>
    <path class="a" d="M488.163,103.6s-14.637-66.4-75.98-84.456c-71.225-20.964-62.8,3.9-49.052,10.815C385.536,41.222,448.431,25.842,488.163,103.6Z" transform="translate(-0.233)"/>
    <path class="a" d="M586.742,300.329s61.418,1.409,76.278,53.991C663.02,354.32,650.661,317.32,586.742,300.329Z" transform="translate(-0.233)"/>
    <path class="a" d="M578.562,424.822s18.913-11.125,30.038,8.622C608.6,433.444,594.416,422.875,578.562,424.822Z" transform="translate(-0.233)"/>
    <path class="a" d="M490.331,363.5s22.173,18.827,27.738,47.887Z" transform="translate(-0.233)"/>
    <path class="a" d="M367.1,497.667s8.793-7.483,19.644-2.806,6.735,18.147,6.735,18.147S391.042,492.8,367.1,497.667Z" transform="translate(-0.233)"/>
    <path class="a" d="M156.727,439.322a14.333,14.333,0,0,1,13.656-2.428c7.89,2.731,8.194,9.407,6.98,13.049C177.362,449.944,176.148,438.108,156.727,439.322Z" transform="translate(-0.233)"/>
    <path class="a" d="M118.553,413.416s6.457-8.544,15-4.961a14.367,14.367,0,0,1,8.82,12.127S135.8,409.833,118.553,413.416Z" transform="translate(-0.233)"/>
    <path class="a" d="M118.553,303.722s7.778-4.744,15.368-1.9,8.683,9.8,8.453,14.863C142.374,316.688,137.023,303.722,118.553,303.722Z" transform="translate(-0.233)"/>
    <path class="a" d="M112.411,249.457s16.441-8.486,39.1,0,43.547,26.705,43.547,26.705S150.181,245.859,112.411,249.457Z" transform="translate(-0.233)"/>
    <path class="c" d="M630.21,342.582" transform="translate(-0.233)"/>
    <path class="a" d="M250.7,360.4s-21.6,15.884-19.061,48.922C231.638,409.317,241.169,370.561,250.7,360.4Z" transform="translate(-0.233)"/>
    <path class="a" d="M305.494,387.444s-13.182,9.234-19.714,46Z" transform="translate(-0.233)"/>
    <path class="a" d="M85.836,382.057s5.575-16.69,33.9-6.655C119.732,375.4,95.648,371.54,85.836,382.057Z" transform="translate(-0.233)"/>
    <path class="a" d="M476.306,470.727s10.06,38.243,8.179,49.528C484.485,520.255,490.7,498.939,476.306,470.727Z" transform="translate(-0.233)"/>
    <path class="a" d="M413.638,547.206s8.319-6.718,17.671-2.854c10.378,4.288,8.17,11.243,8.17,11.243S429.5,543.621,413.638,547.206Z" transform="translate(-0.233)"/>
    <path class="c" d="M668.507,349.356c-7.95-22.322-27.923-41.1-52.126-49-33.093-10.8-70.6-5.215-86.753-1.892,8.6-5.6,16.212-15.942,21.4-24.3,1.848-2.394,3.675-4.916,5.455-7.586,8.555-12.832,19.01-19.813,30.235-20.188a29.541,29.541,0,0,1,13.832,2.936c-5.784,9.617-5.727,18.862.2,25.469,6.517,7.268,18.322,9.372,27.462,4.9,10.552-5.17,14.894-17.529,11.911-33.907-2.949-16.185-13.048-27.5-28.44-31.852-21.639-6.124-56.293,1.961-84.913,33.832-30.136,33.557-63.351,32-71.919,30.934l11.99-7.068c.383-.176,29.821-17.906,41.383-76.593,6.049-30.707,5.9-95.382-33.015-143.006C447.276,17.845,414.733.348,360.45.021l-.863-.012c-.221,0-.442-.009-.668-.009l-.641.009c-2.058-.006-4.132.024-6.16.086l-.879.03c-.872.031-1.742.068-2.606.111-51.032,2.136-81.138,20.2-107.523,53.7-33.188,42.129-36.93,96.812-33.231,129.621a169.873,169.873,0,0,0,3.886,23.122c4.869,20.183,11.17,33.8,22.046,46.2,10.37,13.859,19.665,19.116,19.858,19.2,7.651,3.845,11.115,9.133,11.777,14.574a9.4,9.4,0,0,1-4.505,9.257c-8.982,5.8-24.071.641-35.2-6.117-7.492-4.551-15.217-10.176-23.4-16.131-28.672-20.877-61.172-44.54-95.339-28.549-9.873,4.62-20.131,10.894-28.294,25.416-7.29,14.087-6.4,33.339-1,42.482,10.125,17.14,38.037,23.848,56.235,18.394,9.471-2.838,14.485-8.536,14.118-16.044-.414-8.485-3.253-14.371-8.438-17.492-9.22-5.553-22.882-.639-27,1.065.032-2.937.692-10.516,6.285-15.635,5.31-4.861,13.654-6.353,24.8-4.429,14.416,2.485,24.3,11.64,34.76,21.332,13.575,12.575,28.9,26.769,57.139,28.416-11.306,5.745-54.668,26.032-94.02,20.981-26-3.332-45.593-2.954-59.9,1.159C64.43,355.715,54.446,366,51.169,382.206c-3.478,17.2.389,31.239,11.494,41.719,17.61,16.62,49.632,19.512,65.979,15.211,12.467-3.281,19.408-10.177,19.044-18.919-.351-8.417-7.649-16.5-16.271-18.014-4.133-.727-14.35-.734-20.9,14.49-3.334-.895-17.689-5.224-22.583-14.564-2.107-4.022-2.2-8.521-.262-13.373,3.779-9.489,19.713-7.651,41.764-5.107,31.929,3.683,74.5,8.59,108.686-18.006-7.624,11.124-16.138,30.459-10.8,57.4,4.376,22.076-19.606,43.119-38.039,47.908-4.532,1.177-15.244,2.96-18.4-5.329,2.539-2.089,13.784-11.942,12.525-21.638-.657-5.059-4.6-9.163-11.71-12.2-6.234-2.662-12.943-1.24-18.892,3.994-8.738,7.69-15.667,24.206-11.3,39.668,2.572,9.1,9.986,20.69,30.7,24.259,24.095,4.153,45.663-.89,62.381-14.579,15.488-12.681,26.283-32.1,31.216-56.146a102.425,102.425,0,0,1,7.743-23.342,204.1,204.1,0,0,1,15.78-23.529c.511-.556,1.017-1.1,1.512-1.608A82.936,82.936,0,0,1,305.6,368.29c-6.912,10.526-27.957,45.889-28.921,87.369-.778,12.537.342,26.806,6.084,39.933,11.483,31.47,38.048,48.825,61.214,52.2,21.2,3.085,39.659-5.279,49.37-22.391,9.291-16.371,4.811-25.738,1.315-29.864-5.359-6.322-15.184-8.505-23.895-5.311-9.32,3.418-14.971,12.081-15.228,23.265-3.325.166-16.9.207-26.037-9.347-7.963-8.325-10.616-21.646-7.886-39.59,4.03-26.488,16.411-38.46,29.518-51.134,11.894-11.5,25.2-24.365,33.641-49.844-.638,16.11,3.417,46.07,35.145,75.358,32,29.536,36.016,58.012,35.562,72.358-.431,13.668-5.293,27.974-13.042,34.62-2.256-1.726-9.678-9.17-18.553-8.148-4.705.547-9.838,2.182-13.051,6.449-7.108,9.442-7.012,19.674.258,27.37,4.838,5.121,12.333,8.5,20.562,9.281q1.816.171,3.632.171a39.458,39.458,0,0,0,14.193-2.656h0a39.672,39.672,0,0,0,7.73-4.006c14.227-9.492,25.642-26.6,30.538-45.768,4.048-15.846,5.685-40.535-9.506-68.154A221.509,221.509,0,0,1,465.911,433.6l-4.942-16.129c18.388,39.908,44.072,55.9,64.042,62.12,30.276,9.421,60.245.254,76.507-13.015,10.518-8.579,15.27-18.913,13.385-29.1a26.63,26.63,0,0,0-17.766-20.058,21.461,21.461,0,0,0-21.937,4.715c-11.91,11.123-4.445,23.472-2.179,26.642-11.2,7.174-20.706,9.118-28.255,5.78-10.009-4.427-16.878-18.027-20.414-40.425-4.567-28.921-24.428-50.973-30.438-57.079,14.883.78,37.537-4.737,69.078-16.787,27.16-10.377,47.526-10.893,60.53-1.537,14.036,10.1,14.877,28.906,14.9,32.789-12.261,1.828-19.793,7.952-20.707,16.875-.947,9.242,5.651,19.048,15.022,22.326,5.29,1.851,19,3.962,32.017-16.318C672.963,381.61,674.3,365.613,668.507,349.356Zm-5.2,44.115c-4.834,7.526-10.355,12.619-16.085,15.049-24.243-3.946-24.99-21.891-24.585-27.624,3.332-4.033,9.072-6.765,16.743-7.786a.856.856,0,0,0,.744-.814c.01-.23.786-23.163-15.589-34.955-13.5-9.722-34.411-9.28-62.155,1.319-47.493,16.426-87.459,1.035-87.459,1.035l16.132,16.953c.264.242,26.368,24.589,31.6,57.75,3.634,23.01,10.839,37.048,21.415,41.725,20.687,10.183,40.171-2.818,40.171-2.818-4.07-.969-9.328-4.869-9.328-4.869-.459-.538-11.091-13.333,1.455-25.05a19.774,19.774,0,0,1,20.23-4.339,24.9,24.9,0,0,1,16.616,18.741c1.766,9.541-2.773,19.294-12.783,27.458-15.907,12.979-45.239,21.941-74.913,12.706-22.973-7.149-53.658-27.5-71.6-83.5l-1.842-6.013s-8.2-25.449-9.484-34.121c0,0-15.934,53.256,28.185,95.154l-.011-.037q2.9,6.221,5.98,11.84c14.92,27.128,13.319,51.356,9.347,66.9-4.794,18.767-15.943,35.5-29.827,44.765a37.728,37.728,0,0,1-11.776,5.228c-25.724-1.964-34.685-18.635-36.793-23.6a24.456,24.456,0,0,1,4.514-9.326c2.917-3.876,7.653-5.283,11.871-5.776a16.076,16.076,0,0,1,1.864-.107c8.744,0,15.876,8.241,15.964,8.315a.857.857,0,0,0,1.089.006c8.437-6.854,13.745-21.871,14.2-36.336.461-14.638-3.616-43.674-36.114-73.671-41.2-38.03-35-77.031-33.333-84.463,3.665-14.41-10.52-1.775-13.311,14.048-1.311,7.43-14.562,33.28-27.838,48.171-1.729,1.694-3.434,3.4-5.1,5.148l0,0h0c-9.916,10.431-18.353,22.493-21.582,43.715-2.548,16.742-.474,29.625,6.13,38.4l-.1-.1c9.708,19.416,36.406,21.222,36.406,21.222a15,15,0,0,1-5.105-9.516c0-15.6,9.869-20.9,14.112-22.455,8.048-2.954,17.093-.974,22,4.809,3.208,3.785,7.279,12.443-1.5,27.908-9.348,16.472-27.151,24.524-47.631,21.54a68.7,68.7,0,0,1-19.786-6.184c-52.848-38.221-40.682-119.144-40.654-119.326a185.635,185.635,0,0,1,25.37-54.46s8.756-11.012,3.65-14.582c-9.373-6.552-27.825,16.666-40.83,53.409a104.127,104.127,0,0,0-7.851,23.681c-4.853,23.659-15.442,42.734-30.622,55.164A68.867,68.867,0,0,1,195,499.1c-46.342-6.882-51.877-33.473-52.534-40.218,1.578-9.064,6.17-17.145,11.474-21.813,5.425-4.774,11.493-6.087,17.086-3.7,6.513,2.778,10.107,6.423,10.681,10.837,1.264,9.718-12.224,20.348-12.361,20.454a.858.858,0,0,0-.289.94c2.312,7.151,10.033,9.775,20.657,7.013,9.937-2.581,20.862-9.458,28.508-17.947C227.266,444.616,231.1,433.267,229,422.7c-6.507-32.825,7.988-54.062,15.6-62.591,1.2-1.118,2.382-2.292,3.555-3.5l3.512-2.657s16.087-9.558,1.69-11.374c-13.683-1.726-33.225,32.954-60.466,40.418-22.152,3.677-44.554,1.1-63.265-1.056-22.809-2.63-39.289-4.531-43.554,6.177-2.127,5.34-2.013,10.322.338,14.808,5.895,11.244,23.66,15.441,24.413,15.614a.857.857,0,0,0,.986-.509c4.27-10.393,11.306-15.539,19.309-14.141,7.872,1.385,14.536,8.74,14.854,16.4.327,7.865-6.148,14.13-17.767,17.188-8.055,2.12-20.007,2.451-32.075.181-47.85-19.863-38.276-62.766-35.481-72.263,12.466-15.167,38.379-19.529,80.727-14.1a103.335,103.335,0,0,0,13.147.81c42.148,0,84.275-23.212,84.74-23.471,6.517-4.671,10.006-5.717,4.424-7.811-5.323-2-18.148,6.147-32.009.861-13.314-5.413-22.78-14.171-32.038-22.748-10.654-9.87-20.718-19.192-35.635-21.765-11.7-2.018-20.542-.38-26.262,4.866-7.65,7.015-6.834,17.8-6.8,18.257a.858.858,0,0,0,1.219.7c.165-.078,16.617-7.664,26.574-1.668,4.664,2.808,7.225,8.227,7.609,16.106.437,8.963-7.893,12.818-12.9,14.317a47.669,47.669,0,0,1-17.861,1.645c-40.912-13.346-35.433-53.271-33.306-63.458,7.547-11.685,16.652-17.166,25.45-21.283,33.248-15.562,65.313,7.785,93.6,28.382,8.209,5.977,15.962,11.623,23.516,16.211,22.2,13.486,33.946,8.072,37.016,6.091.151-.1.279-.211.424-.313-.261.2-.424.313-.424.313s35.249-11.522-9.81-47.15c-40.047-31.665-40.4-110.936-40.111-125.569,4.435-23.412,13.6-48.17,30.509-69.63C268.519,21.911,298.195,4.064,348.711,1.95q1.3-.065,2.584-.111l.873-.03c2.011-.063,4.068-.094,6.109-.085l.641-.009c.214,0,.424,0,.634.008l.877.013c53.756.323,85.855,17.609,113.45,51.376,38.514,47.13,38.652,111.176,32.66,141.589-11.381,57.778-40.04,75.193-40.462,75.389L452.891,277.8a.827.827,0,0,0-.162.112l-.732.648a.858.858,0,0,0,.379,1.484c.4.088,40.207,8.356,75.669-31.135,24.353-27.12,57.776-40.516,83.17-33.327,14.728,4.168,24.395,15,27.218,30.509,2.836,15.568-1.166,27.252-10.978,32.059a20.707,20.707,0,0,1-5.59,1.774c-26.539-4.6-19.38-30.465-19.38-30.465a.858.858,0,0,0-.279-1.192c-.241-.145-23.243-13.642-44.082,13.1h0q-1.543,1.98-3.067,4.26c-.944,1.415-1.9,2.776-2.87,4.113-22.933,25.817-77.268,35.929-77.268,35.929s26.952.8,46.539-3.573c.081-.018.162-.047.243-.067a.9.9,0,0,0,.3-.04c1.5-.412,51.385-13.865,93.843,0,23.707,7.742,43.266,26.114,51.041,47.946C672.5,365.677,671.226,381.14,663.307,393.471Z" transform="translate(-0.233)"/>
  </g>
  <g>
    <path class="c" d="M972.99,332.344a26.731,26.731,0,0,0-9.834-8.407,28.931,28.931,0,0,0-13.643-3.331q-18.083,0-28.076,10.787t-9.993,28.235q0,17.451,9.993,28.235t28.076,10.786a25.639,25.639,0,0,0,13.643-3.49,41.584,41.584,0,0,0,9.834-8.249l31.408,32.994a60.686,60.686,0,0,1-26.173,16.021,98.486,98.486,0,0,1-28.712,4.6,97.178,97.178,0,0,1-33.47-5.71,80.5,80.5,0,0,1-27.283-16.338,76.58,76.58,0,0,1-18.242-25.539,86.611,86.611,0,0,1,0-66.623,76.671,76.671,0,0,1,18.242-25.539,80.574,80.574,0,0,1,27.283-16.338,97.167,97.167,0,0,1,33.47-5.71,98.486,98.486,0,0,1,28.712,4.6A60.736,60.736,0,0,1,1004.4,299.35Z" transform="translate(-0.233)"/>
    <path class="c" d="M1021.529,282.536h45.684v20.938h.635a38.532,38.532,0,0,1,6.345-8.883,46.214,46.214,0,0,1,9.835-7.931,56.315,56.315,0,0,1,13.008-5.71,54.357,54.357,0,0,1,15.862-2.221q18.083,0,29.187,5.552a42.255,42.255,0,0,1,17.291,15.387,62.263,62.263,0,0,1,8.406,23.159A176.235,176.235,0,0,1,1170,351.7V436.72h-47.588V361.214q0-6.662-.476-13.8a43.566,43.566,0,0,0-2.855-13.166,22.763,22.763,0,0,0-7.3-9.834q-4.922-3.807-14.118-3.807t-14.91,3.331a22.712,22.712,0,0,0-8.725,8.883,36.275,36.275,0,0,0-3.966,12.531,107.967,107.967,0,0,0-.951,14.593V436.72h-47.588Z" transform="translate(-0.233)"/>
    <path class="c" d="M1308,332.344a26.731,26.731,0,0,0-9.834-8.407,28.931,28.931,0,0,0-13.643-3.331q-18.083,0-28.076,10.787t-9.993,28.235q0,17.451,9.993,28.235t28.076,10.786a25.639,25.639,0,0,0,13.643-3.49,41.584,41.584,0,0,0,9.834-8.249l31.408,32.994a60.686,60.686,0,0,1-26.173,16.021,98.486,98.486,0,0,1-28.712,4.6,97.178,97.178,0,0,1-33.47-5.71,80.5,80.5,0,0,1-27.283-16.338,76.58,76.58,0,0,1-18.242-25.539,86.611,86.611,0,0,1,0-66.623,76.671,76.671,0,0,1,18.242-25.539,80.574,80.574,0,0,1,27.283-16.338,97.167,97.167,0,0,1,33.47-5.71,98.486,98.486,0,0,1,28.712,4.6,60.736,60.736,0,0,1,26.173,16.021Z" transform="translate(-0.233)"/>
    <path class="c" d="M1373.037,320.606h-31.408v-38.07h31.408V255.253a123.581,123.581,0,0,1,2.221-23.953,48.564,48.564,0,0,1,8.565-19.828q6.343-8.566,18.242-13.483t31.249-4.917q7.295,0,14.276.634a97.387,97.387,0,0,1,13.642,2.221l-2.221,40.291a56.558,56.558,0,0,0-7.614-2.379,36.173,36.173,0,0,0-7.931-.793q-11.421,0-17.132,4.917t-5.711,20.146v24.429h35.215v38.07h-35.215V436.72h-47.587Z" transform="translate(-0.233)"/>
    <path class="c" d="M1474.873,409.436a29.706,29.706,0,0,1,2.221-11.421,28.053,28.053,0,0,1,15.546-15.545,30.479,30.479,0,0,1,22.842,0,28.047,28.047,0,0,1,15.545,15.545,30.468,30.468,0,0,1,0,22.842,28.044,28.044,0,0,1-15.545,15.545,30.479,30.479,0,0,1-22.842,0,28.05,28.05,0,0,1-15.546-15.545A29.673,29.673,0,0,1,1474.873,409.436Z" transform="translate(-0.233)"/>
    <path class="c" d="M1672.2,332.344a26.731,26.731,0,0,0-9.834-8.407,28.931,28.931,0,0,0-13.643-3.331q-18.083,0-28.076,10.787t-9.993,28.235q0,17.451,9.993,28.235t28.076,10.786a25.639,25.639,0,0,0,13.643-3.49,41.584,41.584,0,0,0,9.834-8.249l31.408,32.994a60.686,60.686,0,0,1-26.173,16.021,98.486,98.486,0,0,1-28.712,4.6,97.178,97.178,0,0,1-33.47-5.71,80.5,80.5,0,0,1-27.283-16.338,76.58,76.58,0,0,1-18.242-25.539,86.611,86.611,0,0,1,0-66.623,76.671,76.671,0,0,1,18.242-25.539,80.574,80.574,0,0,1,27.283-16.338,97.167,97.167,0,0,1,33.47-5.71,98.486,98.486,0,0,1,28.712,4.6,60.736,60.736,0,0,1,26.173,16.021Z" transform="translate(-0.233)"/>
    <path class="c" d="M1717.565,234a27.62,27.62,0,1,1,8.09,19.511A26.591,26.591,0,0,1,1717.565,234Zm3.808,48.54h47.587V436.72h-47.587Z" transform="translate(-0.233)"/>
  </g>
</svg>
