<svg xmlns="http://www.w3.org/2000/svg" viewBox="0 0 1801 1735.931">
  <defs>
    <style>
      .a {
        fill: #fff;
      }

      .b {
        fill: #aef;
      }

      .c {
        fill: #446ba9;
      }

      .d {
        fill: #00c7e6;
      }

      .e {
        fill: #001321;
      }
    </style>
  </defs>
  <path class="a" d="M486.761,799.815S360.59,840.167,282.2,878.3L118.456,989.2s-53.193,45.865-88.474,125.383c0,0-36.638,80.6-26.6,157.95s41.523,141.386,69.205,165.68c0,0,61.323,73.1,186.984,88.186,0,0,32.433,65.061,60.526,95.416a403.376,403.376,0,0,0,142.21,98.516c67.034,27.411,157.929,45,200.016,46.408s156.322-5.7,227.97-46.137S992.9,1647.317,992.9,1647.317s85.1,44.193,211.418,50.509,221.2-55.416,236.491-69.825,80.7-55.439,111.93-128.07,26.8-111.138,25.441-129.319c0,0,117.736-19.323,171.218-87.256,0,0,55.032-61.732,49.219-153.968S1758.5,977.3,1740.486,951.093s-38.367-56.948-141.455-106.554l-232.739-54.366H537.183Z" transform="translate(0 -32.535)"/>
  <path class="b" d="M129.561,1483.437s66.084,40.741,130.014,42.959c0,0-35.411-107.794-15.884-202.669C243.691,1323.727,174.353,1354.287,129.561,1483.437Z" transform="translate(0 -32.535)"/>
  <line class="b" x1="1683.508" y1="1302.912" x2="1586.12" y2="1336.663"/>
  <path class="b" d="M1496.121,1580.919s-266.42,149.4-432.929-46.213c0,0-8.638,42.848-54.214,94.021-8.215,12.743-18.292,12.676-13.494,19.19,5.5,7.463,21.545,7.941,31.884,14.126,51.7,24.44,167.943,40.857,231.988,34.664C1403.2,1685.1,1496.121,1580.919,1496.121,1580.919Z" transform="translate(0 -32.535)"/>
  <path class="b" d="M1537.484,1251.98s36.591,65.791,40.7,118.632c0,0,71.214-3.335,136.711-55.286C1714.893,1315.326,1652.759,1267.676,1537.484,1251.98Z" transform="translate(0 -32.535)"/>
  <path class="c" d="M1789.848,1055.286C1744.022,867.52,1570.314,833.424,1568.565,833.1a2.133,2.133,0,0,0-2.511,1.73,2.155,2.155,0,0,0,1.728,2.514c1.724.318,172.726,33.976,217.878,218.965,20.833,85.367,12.1,156.084-25.953,210.188-59.043,83.955-169.361,100.156-180.826,101.623-4.244-42.556-19.029-82.095-39.564-115.129a2.157,2.157,0,0,0-3.666,2.275c98.588,158.6,3.839,303.263-107.256,378.957-182.129,124.083-405.809,24.826-432.426,12.235,32.332-33.01,56.252-70.474,68.622-109.04a2.159,2.159,0,1,0-4.113-1.315c-22.907,71.425-86.173,139.1-169.229,181.019-112.464,56.761-250.5,62.323-388.674,15.68C331.927,1675.2,271.6,1567.7,251.037,1487.658c-22.31-86.835-3.993-161.058-3.805-161.8a2.157,2.157,0,0,0-4.18-1.062c-.192.75-18.764,75.883,3.759,163.759a330.524,330.524,0,0,0,11.379,35.72c-12.276-1.179-65.556-7.79-117.925-37.069-54.7-30.58-122.455-93.257-134.616-218.186-16.017-164.554,117.307-281.7,118.544-282.808A2.158,2.158,0,1,0,121.315,983c-1.254,1.123-136.193,119.666-119.96,286.444C13.7,1396.31,82.649,1459.981,138.31,1491.058c56.839,31.736,114.725,37.158,121.584,37.7,47.685,119.718,155.192,179.065,241.3,208.134,62.452,21.082,124.872,31.574,184.982,31.574,73.958,0,144.407-15.89,207.017-47.49a391.929,391.929,0,0,0,99.539-71.283c12.465,6.016,108.856,50.546,225.447,50.546,68.231,0,143.4-15.271,212.644-62.449,119.181-81.2,155.552-179.175,148.435-265.369,11.108-1.409,123.649-17.689,183.959-103.412C1802.035,1213.837,1811,1141.931,1789.848,1055.286Z" transform="translate(0 -32.535)"/>
  <path class="c" d="M284.165,879.572a2.146,2.146,0,0,0,.881-.19c1.7-.761,175.429-78.342,237.238-84.907a2.157,2.157,0,1,0-.455-4.29c-62.492,6.637-231.579,82.137-238.549,85.261a2.157,2.157,0,0,0,.885,4.125Z" transform="translate(0 -32.535)"/>
  <path class="d" d="M1492.177,762.218c-105.717-34.52-228.645,0-228.645,0l-.1.065a329.345,329.345,0,0,0,82.544-85.033c51.78-77.67,111.426-41.436,111.426-41.436-55.707,87.98,114.37,121.466,90.9-7.421-19.773-108.565-169.69-107.051-271.043,5.813C1191.149,730.089,1095.916,709,1095.916,709c.6-.525,1.18-1.05,1.776-1.575l26.176-14.014,7.172-3.84s69.568-42.113,97.7-184.9c28.033-142.309-24.986-470-356.026-470-.255,0-.509-.007-.764-.011-.979,0-1.927-.041-2.911-.041-.527,0-1.033.02-1.558.022q-7.423-.021-14.86.208c-.71.019-1.407.051-2.115.073-2.1.075-4.2.188-6.3.269-312.962,12-362.346,329.977-334.865,469.483,28.128,142.791,105.631,185.192,105.631,185.192,20.947,10.528,28.14,24.4,29.661,36.917,3.347,27.539-36.039,48.08-99.331,9.635-82.773-50.278-180.984-157.16-285.716-108.146-20.383,9.539-47.013,24.049-67.588,60.652-17.725,34.251-14.695,80.25-2.487,100.915,36.622,62,169.344,63.33,166.587,6.851-3.672-75.229-85.777-36.761-85.777-36.761s-5.753-68.183,77.67-53.8,103.578,117.825,230.133,120.82c0,0-123.7,69.04-235.886,54.657s-200.313-4.09-216.783,77.364c-25.712,127.164,125.086,151.315,185.14,135.509,105.207-27.69-3.538-143.95-42.179-49.908,0,0-79.471-18.27-58.5-70.912,25.1-63.015,251.263,66.908,391.227-80.547,0,0-70.291,56.089-48.9,163.97,16.462,83.038-123.966,156.266-141.225,102.868,0,0,67.17-52.264,3.607-79.365-63.668-27.146-128.246,138.094,2.415,160.6,122.421,21.09,201.367-57.533,224.38-169.723s105.4-153.1,105.4-153.1-102.518,138.714-68,288.3,212.309,202.713,271.845,97.806c56.3-99.214-87.739-117.943-87.739-25.89,0,0-106.436,11.507-86.3-120.82,19.991-131.368,122.189-115.34,160.258-269.9-4.193,18.749-19.162,113.808,81.381,206.617,112.19,103.56,99.214,225.994,53.187,263.391,6.857,5.7-45.717-44.367-74.945-5.542-45.709,60.719,44.88,113.241,109.551,70.091s113.574-158.217,50.287-273.284c-30.184-54.881-50.535-120.856-63.584-174.89h0c77.371,265.959,280.773,254,362.758,187.116s-10.257-151.976-61.034-104.55c-32.2,30.07-3.691,63.557-3.691,63.557-75.512,49.623-110.032-2.158-122.977-84.142S1190.579,895.1,1190.579,895.1l0,0c32.032,3.312,83.625-6.289,172.147-40.107,192.018-73.355,185.545,79.468,185.545,79.468-112.234,14.938-12.013,164.629,59.992,52.51C1657.081,910.955,1597.895,796.738,1492.177,762.218Z" transform="translate(0 -32.535)"/>
  <path class="a" d="M1310.617,621.76s138.714-86.478,215.709-18.33c0,0-18.492-48.013-92.484-40.849S1310.617,621.76,1310.617,621.76Z" transform="translate(0 -32.535)"/>
  <ellipse class="e" cx="1031.507" cy="460.168" rx="62.567" ry="45.307" transform="translate(94.437 1058.237) rotate(-57.981)"/>
  <ellipse class="e" cx="690.007" cy="460.168" rx="45.307" ry="62.567" transform="translate(-139.012 403.313) rotate(-32.019)"/>
  <circle class="a" cx="691.83" cy="399.153" r="11.478"/>
  <circle class="a" cx="1054.29" cy="399.153" r="11.478"/>
  <circle class="c" cx="601.13" cy="228.739" r="30.205"/>
  <circle class="c" cx="647.726" cy="141.15" r="29.336"/>
  <circle class="c" cx="715.002" cy="85.783" r="23.172"/>
  <circle class="c" cx="685.854" cy="224.618" r="17.454"/>
  <circle class="c" cx="601.13" cy="312.523" r="25.532"/>
  <path class="a" d="M1182.171,283.541S1146.707,122.664,998.084,78.919c-172.566-50.793-152.158,9.458-118.845,26.2C933.523,132.407,1085.907,95.146,1182.171,283.541Z" transform="translate(0 -32.535)"/>
  <path class="a" d="M1421.011,760.181s148.8,3.413,184.808,130.812C1605.82,890.992,1575.876,801.348,1421.011,760.181Z" transform="translate(0 -32.535)"/>
  <path class="a" d="M1401.192,1061.805s45.823-26.955,72.778,20.89C1473.969,1082.695,1439.6,1057.088,1401.192,1061.805Z" transform="translate(0 -32.535)"/>
  <path class="a" d="M1187.424,913.235s53.721,45.613,67.2,116.022Z" transform="translate(0 -32.535)"/>
  <path class="a" d="M888.844,1238.3s21.3-18.131,47.594-6.8,16.318,43.968,16.318,43.968S946.864,1226.51,888.844,1238.3Z" transform="translate(0 -32.535)"/>
  <path class="a" d="M379.157,1096.937s13.97-12.5,33.086-5.882,19.852,22.793,16.911,31.616C429.153,1122.671,426.212,1094,379.157,1096.937Z" transform="translate(0 -32.535)"/>
  <path class="a" d="M286.669,1034.17s15.643-20.7,36.345-12.02,21.369,29.383,21.369,29.383S328.456,1025.489,286.669,1034.17Z" transform="translate(0 -32.535)"/>
  <path class="a" d="M286.669,768.4s18.846-11.493,37.235-4.6,21.038,23.752,20.479,36.011C344.383,799.815,331.417,768.4,286.669,768.4Z" transform="translate(0 -32.535)"/>
  <path class="a" d="M271.788,636.927s39.834-20.561,94.741,0,105.507,64.7,105.507,64.7S363.3,628.208,271.788,636.927Z" transform="translate(0 -32.535)"/>
  <path class="c" d="M1526.326,862.552" transform="translate(0 -32.535)"/>
  <path class="a" d="M606.835,905.71s-52.338,38.484-46.181,118.531C560.655,1024.241,583.745,930.34,606.835,905.71Z" transform="translate(0 -32.535)"/>
  <path class="a" d="M739.595,971.246s-31.939,22.372-47.764,111.449Z" transform="translate(0 -32.535)"/>
  <path class="a" d="M207.4,958.193s13.508-40.437,82.126-16.124C289.526,942.069,231.173,932.713,207.4,958.193Z" transform="translate(0 -32.535)"/>
  <path class="a" d="M1153.443,1173.025s24.373,92.656,19.816,120C1173.259,1293.023,1188.309,1241.378,1153.443,1173.025Z" transform="translate(0 -32.535)"/>
  <path class="a" d="M1001.609,1358.321s20.156-16.277,42.814-6.916c25.145,10.389,19.795,27.239,19.795,27.239S1040.034,1349.636,1001.609,1358.321Z" transform="translate(0 -32.535)"/>
  <path class="c" d="M1619.114,878.964c-19.261-54.083-67.653-99.574-126.292-118.722-80.178-26.178-171.043-12.636-210.187-4.585,20.834-13.563,39.278-38.626,51.854-58.874,4.478-5.8,8.9-11.91,13.216-18.38,20.728-31.091,46.059-48,73.254-48.912a71.573,71.573,0,0,1,33.514,7.113c-14.014,23.3-13.876,45.7.476,61.708,15.789,17.608,44.392,22.707,66.535,11.862,25.566-12.526,36.084-42.469,28.859-82.151-7.144-39.213-31.614-66.62-68.906-77.172-52.429-14.838-136.388,4.752-205.729,81.969-73.013,81.3-153.49,77.521-174.247,74.947l29.049-17.124c.928-.426,72.252-43.383,100.265-185.573,14.656-74.4,14.3-231.095-79.989-346.48-67.68-82.817-146.524-125.211-278.044-126l-2.09-.03c-.536-.011-1.072-.022-1.618-.022l-1.553.022c-4.986-.015-10.011.058-14.925.208l-2.13.073c-2.112.076-4.221.165-6.314.269C720.47,38.282,647.53,82.053,583.6,163.2c-80.408,102.072-89.475,234.558-80.514,314.048a411.573,411.573,0,0,0,9.416,56.022c11.8,48.9,27.064,81.885,53.414,111.923,25.125,33.577,47.644,46.315,48.112,46.519,18.537,9.317,26.929,22.128,28.533,35.31,1.1,9.068-2.876,17.241-10.916,22.429-21.762,14.043-58.32,1.553-85.274-14.819-18.152-11.026-36.869-24.654-56.687-39.083C420.218,644.971,341.477,587.639,258.7,626.383c-23.92,11.193-48.774,26.394-68.552,61.579-17.662,34.129-15.516,80.774-2.431,102.927,24.531,41.526,92.157,57.778,136.247,44.566,22.945-6.876,35.094-20.682,34.207-38.873-1-20.559-7.881-34.818-20.444-42.38-22.339-13.453-55.439-1.548-65.405,2.58.077-7.115,1.676-25.478,15.227-37.88,12.864-11.778,33.081-15.393,60.085-10.731,34.926,6.021,58.87,28.2,84.219,51.685,32.89,30.468,70.016,64.857,138.439,68.847-27.393,13.918-132.452,63.07-227.794,50.834-62.987-8.073-110.463-7.156-145.124,2.807-41.831,12.027-66.022,36.953-73.96,76.209-8.426,41.678.943,75.687,27.849,101.077,42.667,40.268,120.25,47.274,159.857,36.853,30.2-7.95,47.022-24.657,46.14-45.837-.85-20.392-18.533-39.97-39.422-43.645-10.014-1.762-34.768-1.778-50.647,35.108-8.079-2.168-42.858-12.656-54.715-35.286-5.1-9.744-5.319-20.644-.636-32.4,9.156-22.99,47.761-18.536,101.187-12.375,77.359,8.924,180.5,20.812,263.329-43.626-18.472,26.952-39.1,73.8-26.163,139.058,10.6,53.487-47.5,104.47-92.161,116.074-10.98,2.852-36.934,7.171-44.577-12.91,6.152-5.06,33.4-28.933,30.345-52.426-1.591-12.258-11.137-22.2-28.371-29.547-15.1-6.448-31.358-3-45.772,9.677-21.172,18.631-37.958,58.647-27.367,96.109,6.232,22.04,24.194,50.129,74.386,58.774,58.378,10.061,110.633-2.157,151.138-35.321,37.525-30.724,63.679-77.762,75.631-136.033a248.159,248.159,0,0,1,18.76-56.554c9.057-15.544,22.919-37.813,38.233-57.006,1.237-1.346,2.463-2.656,3.662-3.9a200.939,200.939,0,0,1,35.762-29.582c-16.747,25.5-67.735,111.181-70.069,211.681-1.885,30.376.828,64.947,14.74,96.752,27.821,76.247,92.185,118.3,148.31,126.475,51.368,7.474,96.087-12.791,119.616-54.25,22.511-39.664,11.657-62.36,3.185-72.356-12.983-15.316-36.788-20.606-57.893-12.867-22.58,8.28-36.271,29.271-36.895,56.366-8.056.4-40.942.5-63.084-22.646-19.294-20.17-25.722-52.445-19.106-95.919,9.765-64.175,39.761-93.181,71.517-123.889,28.816-27.869,61.045-59.031,81.507-120.763-1.545,39.031,8.278,111.62,85.15,182.579,77.524,71.56,87.26,140.552,86.162,175.311-1.045,33.116-12.824,67.777-31.6,83.878-5.466-4.181-23.449-22.218-44.951-19.742-11.4,1.326-23.836,5.286-31.621,15.626-17.221,22.876-16.988,47.666.625,66.313,11.722,12.407,29.88,20.6,49.817,22.487q4.4.414,8.8.414a95.6,95.6,0,0,0,34.388-6.436l.014,0h-.008a96.119,96.119,0,0,0,18.728-9.706c34.469-23,62.127-64.451,73.987-110.889,9.807-38.393,13.774-98.209-23.031-165.125a536.678,536.678,0,0,1-29.889-65.059l-11.974-39.077c44.551,96.691,106.779,135.448,155.162,150.506,73.354,22.825,145.964.614,185.363-31.533,25.482-20.785,37-45.823,32.429-70.5-4.119-22.265-21.015-41.34-43.044-48.6-19.218-6.327-38.593-2.168-53.148,11.425-28.857,26.949-10.77,56.869-5.279,64.549-27.138,17.381-50.166,22.092-68.456,14-24.251-10.727-40.893-43.677-49.46-97.944-11.065-70.072-59.186-123.5-73.747-138.293,36.06,1.89,90.946-11.477,167.363-40.672,65.8-25.141,115.148-26.393,146.654-3.725,34.006,24.468,36.044,70.034,36.09,79.443-29.706,4.43-47.956,19.267-50.169,40.885-2.295,22.392,13.692,46.151,36.4,54.093,12.816,4.484,46.024,9.6,77.573-39.535C1629.908,957.111,1633.142,918.353,1619.114,878.964Zm-12.6,106.883c-11.711,18.235-25.089,30.575-38.972,36.462-58.738-9.561-60.545-53.038-59.564-66.927,8.073-9.771,21.979-16.39,40.566-18.865a2.074,2.074,0,0,0,1.8-1.973c.024-.557,1.905-56.12-37.77-84.691-32.707-23.554-83.372-22.483-150.591,3.2-115.068,39.8-211.9,2.506-211.9,2.506l39.085,41.074c.639.587,63.886,59.574,76.572,139.918,8.805,55.749,26.262,89.761,51.885,101.093,50.12,24.671,97.328-6.827,97.328-6.827-9.861-2.348-22.6-11.8-22.6-11.8-1.112-1.3-26.871-32.3,3.526-60.693,13.411-12.526,31.265-16.363,49.014-10.513,20.606,6.789,36.409,24.611,40.257,45.407,4.278,23.117-6.719,46.746-30.97,66.527-38.539,31.446-109.606,53.159-181.5,30.783-55.66-17.32-130.005-66.63-173.483-202.3l-4.464-14.567s-19.878-61.659-22.977-82.669c0,0-38.606,129.031,68.287,230.543l-.028-.09q7.017,15.072,14.487,28.685c36.149,65.726,32.269,124.427,22.646,162.095-11.614,45.469-38.628,86.016-72.266,108.459a91.408,91.408,0,0,1-28.53,12.667c-62.326-4.76-84.037-45.148-89.142-57.184a59.253,59.253,0,0,1,10.937-22.594c7.068-9.39,18.543-12.8,28.761-13.994a38.949,38.949,0,0,1,4.516-.26c21.185,0,38.465,19.966,38.678,20.145a2.077,2.077,0,0,0,2.638.014c20.441-16.607,33.3-52.989,34.409-88.037,1.118-35.465-8.762-105.815-87.5-178.493-99.813-92.139-84.787-186.633-80.76-204.638,8.88-34.912-25.489-4.3-32.251,34.037-3.176,18-35.282,80.632-67.446,116.709-4.189,4.1-8.321,8.232-12.351,12.472l-.006.006,0,0c-24.024,25.273-44.465,54.5-52.29,105.914-6.172,40.563-1.148,71.777,14.851,93.027l-.254-.253c23.52,47.041,88.207,51.416,88.207,51.416a36.341,36.341,0,0,1-12.369-23.056c0-37.787,23.91-50.635,34.192-54.4,19.5-7.157,41.414-2.36,53.291,11.652,7.772,9.171,17.635,30.148-3.629,67.617-22.649,39.908-65.783,59.418-115.4,52.188a166.457,166.457,0,0,1-47.937-14.982c-128.042-92.6-98.565-288.666-98.5-289.106,21.249-76.625,60.83-131.084,61.468-131.947,0,0,21.215-26.681,8.844-35.329-22.71-15.875-67.416,40.378-98.924,129.4a252.281,252.281,0,0,0-19.021,57.375c-11.758,57.321-37.413,103.537-74.193,133.652-26.463,21.666-58.129,34.116-93.3,37.064-112.279-16.673-125.689-81.1-127.281-97.442,3.823-21.961,14.948-41.541,27.8-52.849,13.143-11.565,27.845-14.748,41.4-8.976,15.78,6.73,24.487,15.562,25.879,26.256,3.062,23.545-29.617,49.3-29.949,49.558a2.08,2.08,0,0,0-.7,2.278c5.6,17.326,24.308,23.683,50.049,16.991,24.077-6.254,50.544-22.914,69.071-43.483,21.919-24.33,31.2-51.825,26.122-77.419-15.766-79.529,19.355-130.984,37.793-151.647,2.906-2.709,5.772-5.554,8.614-8.481l8.51-6.437s38.976-23.157,4.094-27.557c-33.152-4.182-80.5,79.842-146.5,97.925-53.67,8.908-107.946,2.669-153.28-2.559-55.263-6.373-95.192-10.978-105.524,14.967-5.154,12.937-4.878,25.009.82,35.876,14.282,27.241,57.324,37.41,59.149,37.83a2.076,2.076,0,0,0,2.388-1.234c10.346-25.179,27.391-37.649,46.783-34.261,19.072,3.355,35.217,21.174,35.99,39.724.793,19.056-14.9,34.234-43.046,41.643-19.516,5.136-48.473,5.939-77.713.438-115.931-48.125-92.736-152.072-85.965-175.081,30.2-36.748,92.985-47.315,195.587-34.158a250.362,250.362,0,0,0,31.854,1.963C475.936,885.618,578,829.386,579.13,828.758c15.789-11.316,24.242-13.852,10.718-18.924-12.9-4.836-43.97,14.894-77.551,2.087-32.257-13.116-55.191-34.334-77.623-55.114-25.814-23.913-50.2-46.5-86.338-52.732-28.359-4.888-49.769-.921-63.629,11.789-18.535,17-16.558,43.13-16.466,44.234a2.079,2.079,0,0,0,2.954,1.707c.4-.188,40.26-18.569,64.385-4.041,11.3,6.8,17.5,19.932,18.436,39.022,1.059,21.717-19.123,31.055-31.249,34.688a115.494,115.494,0,0,1-43.274,3.986c-99.122-32.334-85.847-129.067-80.695-153.747,18.284-28.31,40.345-41.589,61.661-51.565,80.555-37.7,158.243,18.862,226.781,68.765,19.889,14.481,38.674,28.16,56.976,39.276,53.791,32.675,82.246,19.558,89.683,14.759.365-.236.675-.511,1.026-.757-.633.493-1.026.757-1.026.757s85.4-27.915-23.769-114.237C513.1,561.99,512.25,369.93,512.948,334.477c10.745-56.722,32.961-116.708,73.919-168.7C650.011,85.621,721.909,42.382,844.3,37.259q3.138-.158,6.262-.268l2.115-.073c4.872-.152,9.855-.227,14.8-.206l1.553-.022c.518,0,1.027.011,1.537.02l2.126.031c130.242.783,208.013,42.663,274.87,124.476,93.314,114.189,93.646,269.36,79.129,343.046-27.574,139.987-97.009,182.181-98.032,182.655l-31.95,18.673a2,2,0,0,0-.392.271l-1.772,1.571a2.079,2.079,0,0,0,.917,3.595c.963.212,97.416,20.245,183.334-75.435,59-65.707,139.981-98.164,201.507-80.746,35.684,10.1,59.1,36.348,65.945,73.917,6.871,37.718-2.825,66.028-26.6,77.674a50.169,50.169,0,0,1-13.543,4.3c-64.3-11.156-46.955-73.811-46.955-73.811a2.079,2.079,0,0,0-.676-2.889c-.583-.352-56.314-33.052-106.8,31.737v0l0,0q-3.738,4.8-7.431,10.322c-2.286,3.43-4.612,6.727-6.952,9.964-55.562,62.551-187.208,87.049-187.208,87.049s65.3,1.93,112.755-8.656c.2-.044.391-.115.588-.161a2.192,2.192,0,0,0,.739-.1c3.626-1,124.5-33.594,227.366-.005,57.437,18.757,104.825,63.269,123.664,116.166C1628.785,918.508,1625.7,955.972,1606.515,985.846Z" transform="translate(0 -32.535)"/>
</svg>
