<svg xmlns="http://www.w3.org/2000/svg" width="1801" height="1735.931" viewBox="0 0 1801 1735.931">
  <defs>
    <style>
      .a {
        fill: #231f20;
      }
    </style>
  </defs>
  <title>crosscloudci-icon-black</title>
  <path class="a" d="M129.561,1483.437s66.084,40.741,130.014,42.959c0,0-35.411-107.794-15.884-202.669C243.691,1323.727,174.353,1354.287,129.561,1483.437Z" transform="translate(0 -32.535)"/>
  <line class="a" x1="1683.508" y1="1302.912" x2="1586.12" y2="1336.663"/>
  <path class="a" d="M1496.121,1580.919s-266.42,149.4-432.929-46.213c0,0-8.638,42.848-54.214,94.021-8.215,12.743-18.292,12.676-13.494,19.19,5.5,7.463,21.545,7.941,31.884,14.126,51.7,24.44,167.943,40.857,231.988,34.664C1403.2,1685.1,1496.121,1580.919,1496.121,1580.919Z" transform="translate(0 -32.535)"/>
  <path class="a" d="M1537.484,1251.98s36.591,65.791,40.7,118.632c0,0,71.214-3.335,136.711-55.286C1714.893,1315.326,1652.759,1267.676,1537.484,1251.98Z" transform="translate(0 -32.535)"/>
  <path class="a" d="M1310.617,621.76s138.714-86.478,215.709-18.33c0,0-18.492-48.013-92.484-40.849S1310.617,621.76,1310.617,621.76Z" transform="translate(0 -32.535)"/>
  <path class="a" d="M728.422,436.146c-18.321-29.3-50.372-42.294-71.588-29.027s-23.563,47.773-5.241,77.071,50.372,42.294,71.588,29.027S746.743,465.444,728.422,436.146Zm-36.592,7.019a11.478,11.478,0,1,1,11.478-11.478A11.478,11.478,0,0,1,691.83,443.165Z" transform="translate(0 -32.535)"/>
  <path class="a" d="M1064.68,407.119c-21.216-13.267-53.267-.271-71.588,29.027s-15.974,63.8,5.242,77.071,53.267.271,71.588-29.027S1085.9,420.386,1064.68,407.119Zm-10.39,36.046a11.478,11.478,0,1,1,11.478-11.478A11.478,11.478,0,0,1,1054.29,443.165Z" transform="translate(0 -32.535)"/>
  <circle class="a" cx="601.13" cy="228.739" r="30.205"/>
  <circle class="a" cx="647.726" cy="141.15" r="29.336"/>
  <circle class="a" cx="715.002" cy="85.783" r="23.172"/>
  <circle class="a" cx="685.854" cy="224.618" r="17.454"/>
  <circle class="a" cx="601.13" cy="312.523" r="25.532"/>
  <path class="a" d="M1182.171,283.541S1146.707,122.664,998.084,78.919c-172.566-50.793-152.158,9.458-118.845,26.2C933.523,132.408,1085.907,95.146,1182.171,283.541Z" transform="translate(0 -32.535)"/>
  <path class="a" d="M1421.011,760.181s148.8,3.413,184.808,130.812C1605.819,890.992,1575.876,801.348,1421.011,760.181Z" transform="translate(0 -32.535)"/>
  <path class="a" d="M1401.192,1061.805s45.823-26.955,72.778,20.89C1473.969,1082.695,1439.6,1057.088,1401.192,1061.805Z" transform="translate(0 -32.535)"/>
  <path class="a" d="M1187.424,913.235s53.721,45.613,67.2,116.022Z" transform="translate(0 -32.535)"/>
  <path class="a" d="M888.844,1238.3s21.3-18.131,47.594-6.8,16.318,43.968,16.318,43.968S946.864,1226.51,888.844,1238.3Z" transform="translate(0 -32.535)"/>
  <path class="a" d="M379.157,1096.937s13.97-12.5,33.086-5.882,19.852,22.793,16.911,31.616C429.154,1122.671,426.213,1094,379.157,1096.937Z" transform="translate(0 -32.535)"/>
  <path class="a" d="M286.67,1034.17s15.643-20.7,36.345-12.02,21.369,29.383,21.369,29.383S328.456,1025.489,286.67,1034.17Z" transform="translate(0 -32.535)"/>
  <path class="a" d="M286.67,768.4s18.846-11.493,37.235-4.6,21.038,23.752,20.479,36.011C344.383,799.815,331.417,768.4,286.67,768.4Z" transform="translate(0 -32.535)"/>
  <path class="a" d="M271.788,636.927s39.834-20.561,94.741,0,105.507,64.7,105.507,64.7S363.3,628.209,271.788,636.927Z" transform="translate(0 -32.535)"/>
  <path class="a" d="M1526.326,862.552" transform="translate(0 -32.535)"/>
  <path class="a" d="M606.836,905.71s-52.338,38.484-46.181,118.531C560.655,1024.241,583.745,930.34,606.836,905.71Z" transform="translate(0 -32.535)"/>
  <path class="a" d="M739.6,971.246s-31.939,22.372-47.764,111.449Z" transform="translate(0 -32.535)"/>
  <path class="a" d="M207.4,958.193s13.508-40.437,82.126-16.124C289.526,942.069,231.174,932.713,207.4,958.193Z" transform="translate(0 -32.535)"/>
  <path class="a" d="M1153.443,1173.025s24.373,92.656,19.816,120C1173.259,1293.023,1188.309,1241.378,1153.443,1173.025Z" transform="translate(0 -32.535)"/>
  <path class="a" d="M1001.609,1358.32s20.156-16.277,42.814-6.916c25.145,10.389,19.795,27.239,19.795,27.239S1040.034,1349.636,1001.609,1358.32Z" transform="translate(0 -32.535)"/>
  <g>
    <path class="a" d="M633.9,752.947s.394-.264,1.026-.757C634.575,752.436,634.265,752.711,633.9,752.947Z" transform="translate(0 -32.535)"/>
    <path class="a" d="M1789.848,1055.286C1756.3,917.807,1654.193,862.714,1601.22,842.936c1.292,2,2.554,4.015,3.763,6.055,53.344,21.052,148.654,76.12,180.676,207.318,20.833,85.367,12.1,156.083-25.953,210.188-59.044,83.955-169.361,100.156-180.826,101.623-4.244-42.556-19.029-82.095-39.564-115.129a2.157,2.157,0,0,0-3.666,2.275c98.587,158.6,3.839,303.263-107.255,378.957-182.129,124.084-405.809,24.826-432.426,12.235,32.332-33.01,56.252-70.473,68.622-109.04a2.159,2.159,0,1,0-4.113-1.315c-22.907,71.425-86.173,139.1-169.229,181.019-112.464,56.761-250.5,62.323-388.674,15.68C331.927,1675.2,271.6,1567.7,251.038,1487.658c-22.311-86.835-3.993-161.058-3.805-161.8a2.156,2.156,0,0,0-4.18-1.062c-.192.75-18.764,75.883,3.759,163.759a330.456,330.456,0,0,0,11.379,35.72c-12.276-1.179-65.557-7.79-117.925-37.069-54.7-30.58-122.455-93.257-134.616-218.185C-8.837,1120.194,98.83,1010.153,120.457,989.659q-.067-2.916.007-5.9c-11.4,10.331-134.667,125.845-119.108,285.68C13.7,1396.31,82.649,1459.981,138.31,1491.058c56.839,31.736,114.726,37.158,121.584,37.7,47.685,119.718,155.192,179.065,241.3,208.135,62.452,21.082,124.872,31.574,184.982,31.574,73.957,0,144.407-15.891,207.017-47.49a391.924,391.924,0,0,0,99.539-71.283c12.465,6.017,108.856,50.546,225.447,50.546,68.231,0,143.4-15.271,212.644-62.449,119.181-81.2,155.552-179.175,148.435-265.369,11.108-1.409,123.649-17.689,183.959-103.412C1802.035,1213.836,1811,1141.931,1789.848,1055.286Z" transform="translate(0 -32.535)"/>
    <path class="a" d="M124.362,983.167a2.159,2.159,0,0,1-.169,3.047c-.118.106-1.451,1.28-3.736,3.445.638,27.767,10.932,51.222,30.8,69.972,42.667,40.268,120.25,47.274,159.857,36.853,30.2-7.95,47.022-24.657,46.14-45.837-.85-20.392-18.533-39.97-39.423-43.645-10.013-1.762-34.768-1.778-50.647,35.108-8.079-2.167-42.858-12.656-54.715-35.286-5.1-9.744-5.318-20.644-.636-32.4,9.156-22.99,47.761-18.536,101.187-12.374,77.359,8.924,180.5,20.812,263.328-43.626-18.472,26.952-39.1,73.8-26.163,139.058,10.6,53.487-47.5,104.47-92.161,116.074-10.979,2.852-36.934,7.171-44.577-12.91,6.152-5.06,33.4-28.933,30.345-52.426-1.591-12.258-11.137-22.2-28.371-29.547-15.105-6.448-31.359-3-45.772,9.677-21.172,18.631-37.958,58.647-27.367,96.109,6.232,22.04,24.195,50.129,74.387,58.774,58.378,10.061,110.633-2.157,151.138-35.321,37.525-30.724,63.679-77.762,75.631-136.033a248.156,248.156,0,0,1,18.76-56.554c9.057-15.544,22.919-37.813,38.232-57.006,1.237-1.346,2.463-2.656,3.662-3.9a200.946,200.946,0,0,1,35.762-29.582c-16.747,25.5-67.735,111.181-70.069,211.681-1.885,30.376.828,64.947,14.74,96.752,27.82,76.247,92.185,118.3,148.31,126.475,51.368,7.474,96.087-12.791,119.616-54.25,22.511-39.665,11.658-62.36,3.185-72.356-12.983-15.316-36.788-20.606-57.894-12.867-22.58,8.28-36.271,29.271-36.895,56.366-8.056.4-40.942.5-63.083-22.646-19.294-20.171-25.722-52.445-19.106-95.919,9.765-64.175,39.761-93.181,71.517-123.889,28.816-27.869,61.044-59.031,81.507-120.763-1.545,39.031,8.278,111.62,85.15,182.579,77.524,71.56,87.26,140.552,86.162,175.311-1.045,33.116-12.824,67.777-31.6,83.878-5.466-4.181-23.449-22.218-44.951-19.742-11.4,1.326-23.836,5.286-31.621,15.626-17.221,22.876-16.988,47.666.625,66.313,11.722,12.407,29.88,20.6,49.817,22.487q4.4.414,8.8.414a95.6,95.6,0,0,0,34.388-6.436l.013,0h-.008a96.135,96.135,0,0,0,18.728-9.705c34.469-23,62.127-64.451,73.987-110.889,9.807-38.393,13.774-98.209-23.031-165.125a536.726,536.726,0,0,1-29.889-65.059l-11.974-39.077c44.551,96.691,106.779,135.448,155.162,150.506,73.354,22.825,145.964.614,185.363-31.533,25.482-20.785,37-45.823,32.429-70.5-4.118-22.265-21.015-41.339-43.044-48.6-19.218-6.327-38.593-2.167-53.148,11.425-28.857,26.949-10.77,56.869-5.279,64.549-27.138,17.381-50.167,22.092-68.456,14-24.251-10.727-40.893-43.677-49.46-97.944-11.065-70.072-59.185-123.5-73.746-138.293,36.06,1.89,90.946-11.477,167.363-40.672,65.8-25.141,115.148-26.393,146.654-3.725,34.006,24.468,36.044,70.034,36.09,79.443-29.707,4.43-47.956,19.267-50.169,40.885-2.295,22.392,13.692,46.151,36.4,54.093,12.816,4.484,46.023,9.6,77.573-39.535,19.9-30.981,23.131-69.739,9.1-109.129a172.152,172.152,0,0,0-14.131-29.972q-3.287-1.3-6.356-2.428a169.647,169.647,0,0,1,16.571,33.795c13.587,38.149,10.5,75.614-8.684,105.488-11.711,18.235-25.089,30.575-38.972,36.462-58.737-9.561-60.545-53.038-59.564-66.927,8.073-9.771,21.979-16.39,40.565-18.865a2.074,2.074,0,0,0,1.8-1.973c.024-.557,1.9-56.12-37.771-84.691-32.707-23.554-83.372-22.483-150.591,3.2-115.068,39.8-211.9,2.506-211.9,2.506l39.085,41.074c.639.587,63.886,59.574,76.572,139.918,8.805,55.749,26.262,89.761,51.885,101.093,50.12,24.671,97.328-6.827,97.328-6.827-9.861-2.348-22.6-11.8-22.6-11.8-1.112-1.3-26.871-32.3,3.526-60.693,13.411-12.526,31.265-16.363,49.014-10.513,20.606,6.789,36.409,24.611,40.257,45.407,4.278,23.117-6.719,46.746-30.97,66.527-38.539,31.446-109.606,53.159-181.5,30.783-55.66-17.32-130.005-66.63-173.483-202.3l-4.463-14.567s-19.878-61.659-22.977-82.669c0,0-38.606,129.031,68.287,230.543l-.028-.09q7.018,15.072,14.488,28.685c36.149,65.726,32.269,124.427,22.646,162.095-11.614,45.469-38.628,86.016-72.266,108.459a91.415,91.415,0,0,1-28.531,12.667c-62.326-4.76-84.037-45.148-89.142-57.184a59.253,59.253,0,0,1,10.937-22.594c7.068-9.39,18.543-12.8,28.761-13.994a38.954,38.954,0,0,1,4.516-.26c21.185,0,38.465,19.966,38.678,20.145a2.077,2.077,0,0,0,2.638.014c20.441-16.607,33.3-52.989,34.41-88.037,1.117-35.465-8.762-105.815-87.5-178.493-99.813-92.139-84.787-186.633-80.76-204.638,8.88-34.912-25.489-4.3-32.252,34.037-3.176,18-35.282,80.632-67.446,116.709-4.189,4.1-8.321,8.232-12.351,12.472l-.007.006,0,0c-24.024,25.273-44.466,54.5-52.29,105.914-6.172,40.563-1.148,71.777,14.851,93.027l-.254-.253c23.52,47.041,88.207,51.416,88.207,51.416a36.342,36.342,0,0,1-12.369-23.057c0-37.786,23.91-50.635,34.192-54.4,19.5-7.157,41.414-2.36,53.29,11.652,7.771,9.171,17.635,30.148-3.629,67.617-22.649,39.908-65.783,59.418-115.4,52.188a166.459,166.459,0,0,1-47.937-14.982c-128.041-92.6-98.565-288.666-98.5-289.106,21.249-76.625,60.83-131.084,61.468-131.947,0,0,21.215-26.681,8.844-35.329-22.71-15.875-67.416,40.378-98.924,129.4a252.282,252.282,0,0,0-19.021,57.375c-11.758,57.321-37.413,103.537-74.193,133.652-26.463,21.666-58.129,34.116-93.3,37.064-112.279-16.673-125.689-81.1-127.281-97.442,3.823-21.961,14.948-41.541,27.8-52.849,13.143-11.565,27.845-14.748,41.4-8.976,15.78,6.73,24.486,15.562,25.879,26.256,3.062,23.545-29.617,49.3-29.949,49.558a2.08,2.08,0,0,0-.7,2.278c5.6,17.327,24.308,23.683,50.049,16.991,24.077-6.254,50.544-22.914,69.071-43.483,21.918-24.33,31.2-51.825,26.122-77.419C538.5,977.144,573.62,925.689,592.058,905.026c2.906-2.709,5.772-5.554,8.614-8.481l8.51-6.437s38.976-23.157,4.094-27.557c-33.152-4.182-80.5,79.842-146.5,97.925-53.669,8.908-107.945,2.669-153.28-2.559-55.263-6.373-95.191-10.978-105.524,14.967-5.153,12.937-4.877,25.009.82,35.876,14.282,27.241,57.324,37.41,59.149,37.83a2.076,2.076,0,0,0,2.388-1.234c10.346-25.179,27.391-37.649,46.783-34.261,19.072,3.355,35.217,21.174,35.99,39.724.793,19.056-14.9,34.234-43.046,41.643-19.517,5.136-48.473,5.939-77.713.438-115.931-48.125-92.736-152.072-85.965-175.081,23.837-29,67.989-41.684,135.971-39.279a2.023,2.023,0,0,1-.155-.243,2.155,2.155,0,0,1,1.085-2.851c.336-.151,1.057-.473,2.117-.945-35.666-1.454-64.743,1.15-88.027,7.843-41.831,12.027-66.022,36.953-73.96,76.209a145.8,145.8,0,0,0-2.946,25.209c.5-.449.8-.718.851-.765A2.153,2.153,0,0,1,124.362,983.167Z" transform="translate(0 -32.535)"/>
    <path class="a" d="M120.457,989.659c2.285-2.166,3.618-3.339,3.736-3.445A2.157,2.157,0,1,0,121.315,983c-.052.047-.356.316-.851.765Q120.389,986.743,120.457,989.659Z" transform="translate(0 -32.535)"/>
    <path class="a" d="M1598.627,846.564q3.064,1.129,6.356,2.428c-1.209-2.041-2.471-4.056-3.763-6.055q-3.428-1.28-6.573-2.367C1596.012,842.547,1597.346,844.542,1598.627,846.564Z" transform="translate(0 -32.535)"/>
    <path class="a" d="M1492.822,760.242c-80.178-26.178-171.043-12.636-210.187-4.585,20.834-13.563,39.278-38.626,51.854-58.874,4.478-5.8,8.9-11.91,13.217-18.38,20.728-31.091,46.059-48,73.254-48.912a71.571,71.571,0,0,1,33.514,7.113c-14.014,23.3-13.876,45.7.476,61.708,15.79,17.608,44.392,22.707,66.535,11.862,25.566-12.526,36.084-42.469,28.859-82.151-7.144-39.213-31.614-66.62-68.906-77.172-52.429-14.838-136.388,4.752-205.729,81.969-73.013,81.3-153.49,77.521-174.247,74.947l29.049-17.124c.928-.426,72.252-43.383,100.265-185.573,14.656-74.4,14.3-231.095-79.989-346.48-67.68-82.817-146.524-125.211-278.044-126l-2.09-.03c-.536-.011-1.071-.022-1.618-.022l-1.553.022c-4.986-.015-10.011.058-14.925.208l-2.13.073c-2.112.076-4.221.165-6.314.269C720.47,38.282,647.53,82.053,583.6,163.2c-80.408,102.072-89.475,234.558-80.514,314.048a411.605,411.605,0,0,0,9.416,56.022c11.8,48.9,27.063,81.885,53.413,111.923,25.125,33.577,47.644,46.315,48.112,46.519,18.537,9.317,26.929,22.128,28.533,35.31,1.1,9.068-2.876,17.241-10.916,22.429-21.762,14.043-58.32,1.553-85.274-14.819-18.152-11.026-36.869-24.654-56.687-39.083C420.218,644.971,341.477,587.639,258.7,626.383c-23.92,11.193-48.774,26.394-68.552,61.579-17.662,34.129-15.516,80.774-2.431,102.927,24.531,41.526,92.157,57.778,136.247,44.566,22.946-6.876,35.094-20.682,34.207-38.873-1-20.559-7.881-34.818-20.444-42.38-22.339-13.453-55.439-1.548-65.405,2.58.077-7.115,1.676-25.478,15.227-37.88,12.864-11.778,33.081-15.393,60.085-10.731,34.926,6.021,58.87,28.2,84.219,51.685,14.472,13.406,29.768,27.57,48.185,39.57C408.9,820.039,302.419,866.931,285.4,874.5q4.736.193,9.626.482c30.9-13.511,126.65-54.547,189.954-72.446,22.491,13.739,49.643,24.087,85.31,26.167-27.393,13.918-132.452,63.07-227.794,50.833q-25.4-3.255-47.47-4.554c-3.953,1.729-6.834,3-8.459,3.723q25.5,1.118,55.4,4.955a250.376,250.376,0,0,0,31.854,1.963C475.936,885.618,578,829.386,579.13,828.758c15.79-11.316,24.242-13.852,10.718-18.924-12.9-4.836-43.97,14.894-77.552,2.087a170.113,170.113,0,0,1-21.96-10.869q-2.593-1.519-5.107-3.1c-19.075-12.008-34.942-26.677-50.556-41.142-25.814-23.913-50.2-46.5-86.338-52.732-28.359-4.888-49.769-.921-63.629,11.789-18.535,17-16.558,43.13-16.466,44.234a2.078,2.078,0,0,0,2.953,1.707c.4-.188,40.26-18.569,64.385-4.041,11.3,6.8,17.5,19.932,18.436,39.022,1.059,21.717-19.123,31.055-31.249,34.688a115.5,115.5,0,0,1-43.274,3.986c-99.122-32.334-85.847-129.067-80.694-153.747,18.284-28.31,40.345-41.589,61.66-51.565,80.555-37.7,158.243,18.862,226.782,68.765,19.889,14.481,38.674,28.16,56.976,39.276,53.791,32.675,82.246,19.558,89.683,14.759.366-.236.675-.511,1.026-.757-.633.493-1.026.757-1.026.757s85.4-27.915-23.769-114.237C513.1,561.99,512.25,369.93,512.948,334.477c10.745-56.722,32.961-116.708,73.918-168.7C650.011,85.621,721.91,42.382,844.3,37.259q3.138-.158,6.262-.268l2.115-.073c4.872-.152,9.855-.227,14.8-.206l1.553-.022c.518,0,1.027.011,1.537.02l2.126.031c130.242.783,208.013,42.663,274.87,124.476,93.314,114.189,93.646,269.36,79.129,343.046-27.574,139.987-97.009,182.181-98.032,182.655l-31.95,18.673a2,2,0,0,0-.392.271l-1.772,1.571a2.079,2.079,0,0,0,.917,3.595c.963.212,97.416,20.245,183.334-75.435,59-65.707,139.981-98.164,201.507-80.746,35.684,10.1,59.1,36.348,65.945,73.917,6.871,37.718-2.825,66.028-26.6,77.674a50.167,50.167,0,0,1-13.543,4.3c-64.3-11.156-46.955-73.811-46.955-73.811a2.079,2.079,0,0,0-.676-2.889c-.583-.352-56.314-33.052-106.8,31.737v0l0,0q-3.738,4.8-7.431,10.322c-2.286,3.43-4.612,6.727-6.952,9.965-55.562,62.551-187.208,87.049-187.208,87.049s65.3,1.93,112.755-8.656c.2-.044.391-.115.588-.161a2.192,2.192,0,0,0,.739-.1c3.626-1,124.5-33.594,227.366-.005,42.283,13.808,79.1,41.583,103.113,76.376q3.139,1.088,6.573,2.367C1576.827,805.2,1537.856,774.947,1492.822,760.242Z" transform="translate(0 -32.535)"/>
    <path class="a" d="M282.2,878.3a2.023,2.023,0,0,0,.155.243q2.093.074,4.214.166c1.625-.721,4.505-1.994,8.459-3.723q-4.892-.289-9.626-.482c-1.06.471-1.781.794-2.117.945A2.155,2.155,0,0,0,282.2,878.3Z" transform="translate(0 -32.535)"/>
  </g>
</svg>
