<svg xmlns="http://www.w3.org/2000/svg" width="2500" height="716.489" viewBox="0 0 2500 716.489">
  <defs>
    <style>
      .a {
        fill: #fff;
      }
    </style>
  </defs>
  <title>crosscloudci-horizontal-white</title>
  <path class="a" d="M913.9,330.91a29.5,29.5,0,0,1,9.678-8.27,27.978,27.978,0,0,1,13.439-3.09,30.61,30.61,0,0,1,13.34,3.172,24.244,24.244,0,0,1,9.568,7.553,4.071,4.071,0,0,0,2.847,1.7,4.113,4.113,0,0,0,3.169-.982l21.733-19.083a4.066,4.066,0,0,0,.448-5.651c-5.537-6.679-13.077-11.978-22.414-15.751a77.77,77.77,0,0,0-56.529-.553,69.976,69.976,0,0,0-22.922,14.35,68.056,68.056,0,0,0-15.647,22.536,73.224,73.224,0,0,0-5.773,29.455,74.571,74.571,0,0,0,5.773,29.982,66.193,66.193,0,0,0,39.2,36.661,82.87,82.87,0,0,0,28.006,4.743,79.433,79.433,0,0,0,28.068-4.9,56.871,56.871,0,0,0,21.812-14.144A4.065,4.065,0,0,0,987.62,403l-19.878-20.142a4.147,4.147,0,0,0-3.093-1.2,4.062,4.062,0,0,0-2.962,1.5,24.416,24.416,0,0,1-10.254,7.256,36.477,36.477,0,0,1-13.353,2.632,29.392,29.392,0,0,1-13.867-3.106,30.432,30.432,0,0,1-9.952-8.3,37.106,37.106,0,0,1-6.088-11.832A45.649,45.649,0,0,1,906.1,356.3a48.539,48.539,0,0,1,1.96-13.574A36.71,36.71,0,0,1,913.9,330.91Z"/>
  <path class="a" d="M1082.743,285.913a18.916,18.916,0,0,0-4.742-.861q-2.258-.139-4.226-.14a41.182,41.182,0,0,0-24.645,7.661,49.418,49.418,0,0,0-8.923,8.291v-8.175a4.068,4.068,0,0,0-4.068-4.068H1005.66a4.068,4.068,0,0,0-4.068,4.068V419.907a4.068,4.068,0,0,0,4.068,4.068h31.8a4.068,4.068,0,0,0,4.068-4.068V351.794a40.635,40.635,0,0,1,1.225-8.376,30.232,30.232,0,0,1,4.453-10.042,27.9,27.9,0,0,1,9.046-8.31c3.754-2.254,8.935-3.395,15.4-3.395a34.04,34.04,0,0,1,3.894.236,40.334,40.334,0,0,1,4.922.969,4.069,4.069,0,0,0,5.058-3.946V289.774A4.069,4.069,0,0,0,1082.743,285.913Z"/>
  <path class="a" d="M1210.942,304.307a69.155,69.155,0,0,0-23.361-14.366,83.057,83.057,0,0,0-56.923,0,69.113,69.113,0,0,0-23.358,14.366,68.35,68.35,0,0,0-15.643,22.388,71.621,71.621,0,0,0-5.78,29.074,72.525,72.525,0,0,0,5.773,29.188,69.412,69.412,0,0,0,15.624,22.647,71.4,71.4,0,0,0,23.317,14.761,79.154,79.154,0,0,0,57.059,0,71.514,71.514,0,0,0,23.314-14.758,69.634,69.634,0,0,0,15.625-22.647,72.611,72.611,0,0,0,5.773-29.191,71.684,71.684,0,0,0-5.78-29.074A68.545,68.545,0,0,0,1210.942,304.307Zm-19.05,51.462a47.077,47.077,0,0,1-2.076,13.657,37.028,37.028,0,0,1-6.085,11.948,31.538,31.538,0,0,1-10.108,8.45,34.236,34.236,0,0,1-29.008,0,31.445,31.445,0,0,1-10.107-8.448,36.869,36.869,0,0,1-6.084-11.948,46.969,46.969,0,0,1-2.076-13.657,45.734,45.734,0,0,1,2.071-13.511,37.181,37.181,0,0,1,6.089-11.829,30.1,30.1,0,0,1,10.054-8.289,35.527,35.527,0,0,1,29.115,0,30.159,30.159,0,0,1,10.052,8.286,37.3,37.3,0,0,1,6.091,11.832A45.8,45.8,0,0,1,1191.892,355.769Z"/>
  <path class="a" d="M1288.681,319.65a27.1,27.1,0,0,1,12.229-2.749A29,29,0,0,1,1315.1,320.5a32.988,32.988,0,0,1,10.4,8.583,4.062,4.062,0,0,0,5.931.583l20.673-18.288a4.064,4.064,0,0,0,.506-5.556,49.688,49.688,0,0,0-22.617-15.892,82.636,82.636,0,0,0-28.29-5.013,76.457,76.457,0,0,0-19.591,2.521,56.057,56.057,0,0,0-17.428,7.865,41.764,41.764,0,0,0-12.765,13.935,40.544,40.544,0,0,0-4.906,20.3c0,6.642,1.226,12.356,3.643,16.985a34.842,34.842,0,0,0,9.594,11.541,49.531,49.531,0,0,0,13.128,7.219,109.267,109.267,0,0,0,14.4,4.258c9.388,2.222,16.476,4.444,21.062,6.607,3.431,1.623,4.96,4,4.96,7.722a9.174,9.174,0,0,1-1.221,4.973,9.611,9.611,0,0,1-3.47,3.281,20.062,20.062,0,0,1-5.507,2.087,28.289,28.289,0,0,1-6.142.7,35.607,35.607,0,0,1-16.91-4.03,37.869,37.869,0,0,1-12.464-10.283,4.061,4.061,0,0,0-2.894-1.576,4.105,4.105,0,0,0-3.112,1.086l-20.938,19.615a4.066,4.066,0,0,0-.212,5.723,65.271,65.271,0,0,0,24.849,16.543,83.885,83.885,0,0,0,30.356,5.707,92.515,92.515,0,0,0,20.932-2.36,53.262,53.262,0,0,0,18.35-7.9,41.269,41.269,0,0,0,12.928-14.53c3.227-5.961,4.863-13.257,4.863-21.68a35.482,35.482,0,0,0-4.248-17.79,38.9,38.9,0,0,0-10.8-12.129,57.235,57.235,0,0,0-14.268-7.566,121.05,121.05,0,0,0-14.9-4.375c-8.739-2.055-15.418-4.073-19.855-6-3.206-1.39-4.573-3.406-4.573-6.737C1284.57,323.22,1285.838,321.072,1288.681,319.65Z"/>
  <path class="a" d="M1406.353,319.65a27.1,27.1,0,0,1,12.229-2.749,28.6,28.6,0,0,1,14.194,3.594,32.968,32.968,0,0,1,10.4,8.585,4.065,4.065,0,0,0,5.931.58l20.673-18.288a4.064,4.064,0,0,0,.506-5.556,49.685,49.685,0,0,0-22.618-15.892,82.636,82.636,0,0,0-28.29-5.013,76.457,76.457,0,0,0-19.591,2.521,56.1,56.1,0,0,0-17.428,7.865,41.772,41.772,0,0,0-12.764,13.932,40.561,40.561,0,0,0-4.906,20.3c0,6.644,1.226,12.359,3.641,16.985a34.842,34.842,0,0,0,9.594,11.541,49.531,49.531,0,0,0,13.128,7.219,109.207,109.207,0,0,0,14.4,4.258c9.388,2.222,16.476,4.444,21.062,6.607,3.431,1.623,4.961,4.007,4.961,7.722a9.185,9.185,0,0,1-1.219,4.973,9.636,9.636,0,0,1-3.472,3.281,20.144,20.144,0,0,1-5.508,2.089,28.426,28.426,0,0,1-6.141.694,35.608,35.608,0,0,1-16.911-4.03,37.869,37.869,0,0,1-12.464-10.283,4.061,4.061,0,0,0-2.894-1.576,4.1,4.1,0,0,0-3.112,1.086l-20.938,19.615a4.066,4.066,0,0,0-.212,5.723,65.271,65.271,0,0,0,24.849,16.543,83.885,83.885,0,0,0,30.356,5.707,92.515,92.515,0,0,0,20.932-2.36,53.247,53.247,0,0,0,18.352-7.9,41.3,41.3,0,0,0,12.928-14.53c3.227-5.966,4.863-13.259,4.863-21.68a35.475,35.475,0,0,0-4.249-17.79,38.911,38.911,0,0,0-10.8-12.129,57.3,57.3,0,0,0-14.268-7.566,121.328,121.328,0,0,0-14.9-4.375c-8.739-2.055-15.418-4.073-19.853-6-3.207-1.39-4.575-3.406-4.575-6.737C1402.242,323.22,1403.51,321.072,1406.353,319.65Z"/>
  <rect class="a" x="1481.83" y="337.126" width="71.745" height="35.165" rx="4.068" ry="4.068"/>
  <path class="a" d="M1616.764,330.91a29.5,29.5,0,0,1,9.678-8.27,28.018,28.018,0,0,1,13.441-3.09,30.6,30.6,0,0,1,13.339,3.172,24.244,24.244,0,0,1,9.568,7.553,4.071,4.071,0,0,0,2.847,1.7A4.118,4.118,0,0,0,1668.8,331l21.733-19.083a4.064,4.064,0,0,0,.448-5.651c-5.535-6.679-13.077-11.978-22.414-15.751a77.77,77.77,0,0,0-56.529-.553,69.976,69.976,0,0,0-22.922,14.35,68.056,68.056,0,0,0-15.647,22.536A73.243,73.243,0,0,0,1567.7,356.3a74.6,74.6,0,0,0,5.773,29.982,66.193,66.193,0,0,0,39.2,36.661,82.87,82.87,0,0,0,28.006,4.743,79.422,79.422,0,0,0,28.068-4.9,56.841,56.841,0,0,0,21.812-14.144,4.066,4.066,0,0,0-.074-5.638l-19.876-20.142a4.172,4.172,0,0,0-3.094-1.2,4.062,4.062,0,0,0-2.962,1.5,24.416,24.416,0,0,1-10.254,7.256,36.477,36.477,0,0,1-13.353,2.632,29.392,29.392,0,0,1-13.867-3.106,30.408,30.408,0,0,1-9.95-8.3,37.111,37.111,0,0,1-6.089-11.832,45.637,45.637,0,0,1-2.071-13.508,48.509,48.509,0,0,1,1.958-13.574A36.71,36.71,0,0,1,1616.764,330.91Z"/>
  <rect class="a" x="1704.986" y="215.472" width="39.942" height="208.503" rx="4.068" ry="4.068"/>
  <path class="a" d="M1893.13,304.307a69.209,69.209,0,0,0-23.362-14.366,83.053,83.053,0,0,0-56.922,0,69.055,69.055,0,0,0-23.359,14.366,68.354,68.354,0,0,0-15.643,22.388,71.6,71.6,0,0,0-5.781,29.074,72.543,72.543,0,0,0,5.773,29.191,69.474,69.474,0,0,0,15.624,22.644,71.425,71.425,0,0,0,23.317,14.761,79.158,79.158,0,0,0,57.06,0,71.526,71.526,0,0,0,23.314-14.758,69.582,69.582,0,0,0,15.624-22.647,72.589,72.589,0,0,0,5.773-29.191,71.64,71.64,0,0,0-5.781-29.074A68.447,68.447,0,0,0,1893.13,304.307Zm-19.051,51.462A47.018,47.018,0,0,1,1872,369.425a37.05,37.05,0,0,1-6.083,11.948,31.554,31.554,0,0,1-10.111,8.45,34.23,34.23,0,0,1-29.005,0,31.436,31.436,0,0,1-10.108-8.448,36.9,36.9,0,0,1-6.085-11.948,46.974,46.974,0,0,1-2.074-13.657,45.668,45.668,0,0,1,2.071-13.511,37.151,37.151,0,0,1,6.088-11.829,30.086,30.086,0,0,1,10.055-8.289,35.524,35.524,0,0,1,29.114,0,30.189,30.189,0,0,1,10.052,8.283,37.319,37.319,0,0,1,6.091,11.835A45.8,45.8,0,0,1,1874.079,355.769Z"/>
  <path class="a" d="M2057.307,288.622h-31.8a4.069,4.069,0,0,0-4.068,4.068v69.97a40,40,0,0,1-1.687,11.429,30.833,30.833,0,0,1-4.788,9.719,23.8,23.8,0,0,1-7.939,6.673,23.532,23.532,0,0,1-11.2,2.566c-4.264,0-7.635-.829-10.021-2.468a18.622,18.622,0,0,1-6.011-6.663,27.575,27.575,0,0,1-2.992-9.592,86.873,86.873,0,0,1-.76-11.136v-70.5a4.069,4.069,0,0,0-4.068-4.068h-31.8a4.069,4.069,0,0,0-4.068,4.068V372.2a73.428,73.428,0,0,0,2.807,20.2,50.814,50.814,0,0,0,9.075,17.851,46.3,46.3,0,0,0,15.963,12.645c6.454,3.178,14.236,4.791,23.134,4.791,10.338,0,19.456-2.7,27.1-8.016a53.45,53.45,0,0,0,8.85-7.629v7.868a4.069,4.069,0,0,0,4.068,4.068h30.215a4.069,4.069,0,0,0,4.068-4.068V292.689A4.069,4.069,0,0,0,2057.307,288.622Z"/>
  <path class="a" d="M2224.806,215.472H2193a4.069,4.069,0,0,0-4.068,4.068V299.3l-.058-.056a51.224,51.224,0,0,0-9.647-6.92,59.589,59.589,0,0,0-29.694-7.415A63.417,63.417,0,0,0,2102,305.586a68.4,68.4,0,0,0-13.532,22.533,79.47,79.47,0,0,0-4.756,27.649,82.7,82.7,0,0,0,4.605,27.732,68.984,68.984,0,0,0,13.243,22.8,64.223,64.223,0,0,0,20.928,15.563,64.885,64.885,0,0,0,27.84,5.821,60.651,60.651,0,0,0,27.112-6.252,48.092,48.092,0,0,0,13.079-9.388v7.862a4.069,4.069,0,0,0,4.068,4.068h30.215a4.069,4.069,0,0,0,4.068-4.068V219.539A4.069,4.069,0,0,0,2224.806,215.472ZM2189.993,356.3a40.9,40.9,0,0,1-2.3,13.381,37.148,37.148,0,0,1-6.687,11.829,34.479,34.479,0,0,1-10.556,8.416,32.468,32.468,0,0,1-28-.1,31.446,31.446,0,0,1-10.108-8.448,36.9,36.9,0,0,1-6.085-11.948,46.942,46.942,0,0,1-2.076-13.657,45.638,45.638,0,0,1,2.074-13.511,37.192,37.192,0,0,1,6.088-11.832,30.074,30.074,0,0,1,10.058-8.286,30.725,30.725,0,0,1,14.289-3.12,28.637,28.637,0,0,1,13.7,3.223,36.29,36.29,0,0,1,10.611,8.58,36.868,36.868,0,0,1,6.681,11.938A42.123,42.123,0,0,1,2189.993,356.3Z"/>
  <path class="a" d="M2367.335,330.91a29.482,29.482,0,0,1,9.674-8.27,28.03,28.03,0,0,1,13.442-3.09,30.591,30.591,0,0,1,13.339,3.172,24.238,24.238,0,0,1,9.568,7.55,4.06,4.06,0,0,0,2.847,1.705,4.11,4.11,0,0,0,3.167-.982l21.736-19.083a4.064,4.064,0,0,0,.448-5.651c-5.535-6.676-13.074-11.978-22.414-15.751a77.767,77.767,0,0,0-56.528-.553,69.946,69.946,0,0,0-22.922,14.35,67.951,67.951,0,0,0-15.648,22.536,73.247,73.247,0,0,0-5.773,29.455,74.594,74.594,0,0,0,5.773,29.982,66.188,66.188,0,0,0,39.2,36.661,82.877,82.877,0,0,0,28.007,4.743,79.422,79.422,0,0,0,28.068-4.9,56.836,56.836,0,0,0,21.813-14.144,4.066,4.066,0,0,0-.074-5.638l-19.877-20.142a4.145,4.145,0,0,0-3.093-1.2,4.064,4.064,0,0,0-2.961,1.5,24.431,24.431,0,0,1-10.254,7.256,36.484,36.484,0,0,1-13.355,2.632,29.432,29.432,0,0,1-13.868-3.1,30.456,30.456,0,0,1-9.949-8.3,37.141,37.141,0,0,1-6.091-11.832,45.637,45.637,0,0,1-2.071-13.508,48.539,48.539,0,0,1,1.96-13.574A36.579,36.579,0,0,1,2367.335,330.91Z"/>
  <path class="a" d="M2475.261,272.638a25.064,25.064,0,0,0,17.446-6.491,22.671,22.671,0,0,0,0-33.316,25.078,25.078,0,0,0-17.446-6.491,23.586,23.586,0,0,0-17.322,6.888,22.633,22.633,0,0,0,0,32.522A23.574,23.574,0,0,0,2475.261,272.638Z"/>
  <rect class="a" x="2455.553" y="288.622" width="39.942" height="135.353" rx="4.068" ry="4.068"/>
  <path class="a" d="M53.475,598.847s27.275,16.815,53.662,17.731c0,0-14.615-44.491-6.556-83.65C100.581,532.928,71.963,545.541,53.475,598.847Z"/>
  <line class="a" x1="694.852" y1="537.765" x2="654.656" y2="551.695"/>
  <path class="a" d="M617.51,639.081s-109.962,61.663-178.687-19.074c0,0-3.565,17.685-22.376,38.806-3.391,5.26-7.55,5.232-5.569,7.92,2.269,3.08,8.892,3.278,13.16,5.83,21.34,10.087,69.317,16.863,95.751,14.307C579.159,682.08,617.51,639.081,617.51,639.081Z"/>
  <path class="a" d="M634.582,503.315s15.1,27.154,16.8,48.964c0,0,29.393-1.376,56.426-22.819C707.806,529.46,682.161,509.793,634.582,503.315Z"/>
  <path class="a" d="M540.945,243.2s57.253-35.693,89.032-7.565c0,0-7.632-19.817-38.172-16.86S540.945,243.2,540.945,243.2Z"/>
  <path class="a" d="M300.649,166.587c-7.562-12.093-20.791-17.457-29.547-11.981s-9.725,19.718-2.163,31.81,20.791,17.456,29.547,11.981S308.211,178.679,300.649,166.587Zm-15.1,2.9a4.737,4.737,0,1,1,4.737-4.737A4.737,4.737,0,0,1,285.547,169.484Z"/>
  <path class="a" d="M439.437,154.606c-8.757-5.476-21.986-.112-29.547,11.981s-6.593,26.335,2.163,31.81,21.986.112,29.547-11.981S448.194,160.082,439.437,154.606Zm-4.288,14.878a4.737,4.737,0,1,1,4.737-4.737A4.737,4.737,0,0,1,435.149,169.484Z"/>
  <circle class="a" cx="248.111" cy="94.41" r="12.467"/>
  <circle class="a" cx="267.343" cy="58.258" r="12.108"/>
  <circle class="a" cx="295.111" cy="35.406" r="9.564"/>
  <circle class="a" cx="283.08" cy="92.709" r="7.204"/>
  <circle class="a" cx="248.111" cy="128.991" r="10.538"/>
  <path class="a" d="M487.93,103.6s-14.637-66.4-75.98-84.456c-71.225-20.964-62.8,3.9-49.052,10.815C385.3,41.222,448.2,25.842,487.93,103.6Z"/>
  <path class="a" d="M586.509,300.329s61.418,1.409,76.278,53.991C662.787,354.32,650.428,317.32,586.509,300.329Z"/>
  <path class="a" d="M578.329,424.822s18.913-11.125,30.038,8.622C608.367,433.444,594.182,422.875,578.329,424.822Z"/>
  <path class="a" d="M490.1,363.5s22.173,18.827,27.738,47.887Z"/>
  <path class="a" d="M366.862,497.667s8.793-7.483,19.644-2.806,6.735,18.147,6.735,18.147S390.809,492.8,366.862,497.667Z"/>
  <path class="a" d="M156.493,439.322a14.333,14.333,0,0,1,13.656-2.428c7.89,2.731,8.194,9.407,6.98,13.049C177.129,449.944,175.915,438.108,156.493,439.322Z"/>
  <path class="a" d="M118.32,413.416s6.457-8.544,15-4.961a14.367,14.367,0,0,1,8.82,12.127S135.567,409.833,118.32,413.416Z"/>
  <path class="a" d="M118.32,303.722s7.778-4.744,15.368-1.9,8.683,9.8,8.453,14.863C142.141,316.688,136.789,303.722,118.32,303.722Z"/>
  <path class="a" d="M112.178,249.457s16.441-8.486,39.1,0,43.547,26.705,43.547,26.705S149.948,245.859,112.178,249.457Z"/>
  <path class="a" d="M629.977,342.582"/>
  <path class="a" d="M250.466,360.395s-21.6,15.884-19.061,48.922C231.405,409.317,240.935,370.561,250.466,360.395Z"/>
  <path class="a" d="M305.261,387.444s-13.182,9.234-19.714,46Z"/>
  <path class="a" d="M85.6,382.057s5.575-16.69,33.9-6.655C119.5,375.4,95.415,371.54,85.6,382.057Z"/>
  <path class="a" d="M476.073,470.727s10.06,38.243,8.179,49.528C484.252,520.255,490.464,498.939,476.073,470.727Z"/>
  <path class="a" d="M413.4,547.206s8.319-6.718,17.671-2.854c10.378,4.288,8.17,11.243,8.17,11.243S429.264,543.621,413.4,547.206Z"/>
  <g>
    <path class="a" d="M261.636,297.343s.163-.109.424-.313C261.915,297.132,261.787,297.246,261.636,297.343Z"/>
    <path class="a" d="M738.743,422.131c-13.849-56.743-55.99-79.482-77.854-87.645.533.825,1.054,1.657,1.553,2.5,22.017,8.689,61.356,31.418,74.572,85.568,8.6,35.234,5,64.422-10.712,86.753-24.37,34.652-69.9,41.338-74.634,41.944a111.584,111.584,0,0,0-16.33-47.518.89.89,0,0,0-1.513.939c40.691,65.461,1.584,125.169-44.269,156.411-75.172,51.214-167.494,10.247-178.48,5.05,13.345-13.624,23.218-29.087,28.323-45.005a.891.891,0,1,0-1.7-.543c-9.454,29.48-35.567,57.41-69.848,74.714-46.418,23.427-103.391,25.723-160.422,6.472C137,677.993,112.1,633.623,103.613,600.589c-9.208-35.84-1.648-66.475-1.571-66.781a.89.89,0,0,0-1.725-.438c-.079.31-7.745,31.32,1.551,67.59a136.393,136.393,0,0,0,4.7,14.743,132.133,132.133,0,0,1-48.672-15.3C35.317,587.781,7.351,561.911,2.332,510.348c-5.979-61.427,38.459-106.845,47.386-115.3q-.028-1.2,0-2.433c-4.7,4.264-55.582,51.941-49.161,117.912,5.1,52.363,33.553,78.643,56.527,91.47a133.376,133.376,0,0,0,50.183,15.56c19.682,49.413,64.054,73.907,99.594,85.906a239.093,239.093,0,0,0,76.35,13.032c30.525,0,59.6-6.559,85.444-19.6a161.763,161.763,0,0,0,41.084-29.421c5.145,2.483,44.929,20.863,93.051,20.863,28.162,0,59.188-6.3,87.767-25.775,49.191-33.514,64.2-73.953,61.265-109.529,4.585-.582,51.035-7.3,75.927-42.682C743.773,487.571,747.472,457.893,738.743,422.131Z"/>
    <path class="a" d="M51.329,392.365a.891.891,0,0,1-.07,1.257c-.049.044-.6.528-1.542,1.422a39.513,39.513,0,0,0,12.713,28.88c17.61,16.62,49.632,19.512,65.979,15.211,12.467-3.281,19.408-10.177,19.044-18.919-.351-8.417-7.649-16.5-16.271-18.014-4.133-.727-14.35-.734-20.9,14.49-3.335-.895-17.689-5.224-22.583-14.564-2.107-4.022-2.2-8.521-.262-13.373,3.779-9.489,19.713-7.651,41.764-5.107,31.929,3.683,74.5,8.59,108.686-18.006-7.624,11.124-16.138,30.459-10.8,57.4,4.376,22.076-19.606,43.119-38.039,47.908-4.532,1.177-15.244,2.96-18.4-5.329,2.539-2.089,13.784-11.942,12.525-21.638-.657-5.059-4.6-9.163-11.71-12.2-6.234-2.662-12.943-1.24-18.892,3.994-8.738,7.69-15.667,24.206-11.3,39.668,2.572,9.1,9.986,20.69,30.7,24.258,24.095,4.153,45.663-.89,62.381-14.579,15.488-12.681,26.283-32.1,31.216-56.146a102.424,102.424,0,0,1,7.743-23.342,204.082,204.082,0,0,1,15.78-23.529c.511-.556,1.017-1.1,1.512-1.608a82.939,82.939,0,0,1,14.761-12.21c-6.912,10.526-27.957,45.889-28.921,87.369-.778,12.537.342,26.806,6.084,39.933,11.483,31.47,38.048,48.825,61.214,52.2,21.2,3.085,39.659-5.279,49.37-22.391,9.291-16.371,4.812-25.738,1.315-29.864-5.359-6.322-15.184-8.5-23.9-5.311-9.32,3.418-14.971,12.081-15.228,23.264-3.325.166-16.9.207-26.037-9.347-7.963-8.325-10.616-21.646-7.886-39.59,4.03-26.488,16.411-38.46,29.518-51.134,11.894-11.5,25.2-24.365,33.641-49.844-.638,16.11,3.417,46.07,35.145,75.358,32,29.536,36.016,58.012,35.562,72.358-.431,13.668-5.293,27.974-13.042,34.62-2.256-1.726-9.678-9.17-18.553-8.148-4.705.547-9.838,2.182-13.051,6.449-7.108,9.442-7.012,19.674.258,27.37,4.838,5.121,12.333,8.5,20.562,9.281q1.816.171,3.632.171a39.459,39.459,0,0,0,14.193-2.656h0a39.679,39.679,0,0,0,7.73-4.006c14.227-9.492,25.642-26.6,30.538-45.768,4.048-15.846,5.685-40.535-9.506-68.154A221.529,221.529,0,0,1,465.678,433.6l-4.942-16.129c18.388,39.908,44.072,55.9,64.042,62.12,30.276,9.421,60.245.254,76.507-13.015,10.518-8.579,15.27-18.913,13.385-29.1A26.63,26.63,0,0,0,596.9,417.416a21.461,21.461,0,0,0-21.936,4.715c-11.91,11.123-4.445,23.472-2.179,26.642-11.2,7.174-20.706,9.118-28.255,5.78-10.009-4.427-16.878-18.027-20.414-40.425-4.567-28.921-24.428-50.973-30.438-57.079,14.884.78,37.537-4.737,69.078-16.787,27.16-10.377,47.526-10.893,60.53-1.537,14.036,10.1,14.877,28.906,14.9,32.789-12.261,1.828-19.793,7.952-20.707,16.875-.947,9.242,5.651,19.048,15.022,22.326,5.29,1.851,19,3.962,32.017-16.318,8.212-12.787,9.547-28.784,3.757-45.042a71.054,71.054,0,0,0-5.832-12.371q-1.357-.535-2.623-1a70.02,70.02,0,0,1,6.84,13.948c5.608,15.746,4.335,31.209-3.584,43.539C658.24,401,652.719,406.09,646.989,408.52,622.745,404.574,622,386.629,622.4,380.9c3.332-4.033,9.072-6.765,16.743-7.786a.856.856,0,0,0,.744-.814c.01-.23.786-23.163-15.589-34.955-13.5-9.722-34.411-9.28-62.155,1.319-47.493,16.426-87.459,1.035-87.459,1.035l16.132,16.953c.264.242,26.368,24.589,31.6,57.75,3.634,23.01,10.839,37.048,21.415,41.725C564.525,466.3,584.01,453.3,584.01,453.3c-4.07-.969-9.328-4.869-9.328-4.869-.459-.538-11.091-13.333,1.455-25.05a19.774,19.774,0,0,1,20.23-4.339,24.894,24.894,0,0,1,16.616,18.741c1.766,9.541-2.773,19.294-12.783,27.458-15.906,12.979-45.239,21.941-74.913,12.706-22.973-7.149-53.658-27.5-71.6-83.5l-1.842-6.013s-8.2-25.449-9.484-34.121c0,0-15.934,53.256,28.185,95.154l-.011-.037q2.9,6.221,5.98,11.84c14.92,27.128,13.319,51.356,9.347,66.9-4.794,18.767-15.943,35.5-29.827,44.766a37.731,37.731,0,0,1-11.776,5.228c-25.724-1.964-34.685-18.635-36.793-23.6a24.456,24.456,0,0,1,4.514-9.326c2.917-3.876,7.653-5.283,11.871-5.776a16.078,16.078,0,0,1,1.864-.107c8.744,0,15.876,8.241,15.964,8.315a.857.857,0,0,0,1.089.006c8.437-6.854,13.745-21.871,14.2-36.336.461-14.638-3.616-43.674-36.114-73.671-41.2-38.03-34.995-77.031-33.333-84.463,3.665-14.41-10.52-1.775-13.312,14.048-1.311,7.43-14.562,33.28-27.838,48.171-1.729,1.694-3.434,3.4-5.1,5.148l0,0h0c-9.916,10.431-18.353,22.493-21.582,43.715-2.547,16.742-.474,29.625,6.13,38.4l-.1-.1c9.708,19.416,36.407,21.222,36.407,21.222a15,15,0,0,1-5.105-9.516c0-15.6,9.869-20.9,14.112-22.455,8.048-2.954,17.093-.974,22,4.809,3.208,3.785,7.279,12.443-1.5,27.908-9.348,16.472-27.151,24.524-47.631,21.54a68.7,68.7,0,0,1-19.786-6.184c-52.848-38.221-40.682-119.144-40.654-119.326a185.638,185.638,0,0,1,25.37-54.46s8.756-11.012,3.65-14.582c-9.373-6.552-27.825,16.666-40.83,53.409a104.127,104.127,0,0,0-7.851,23.681c-4.853,23.659-15.442,42.734-30.623,55.164a68.867,68.867,0,0,1-38.507,15.3c-46.342-6.882-51.877-33.473-52.534-40.218,1.578-9.064,6.17-17.145,11.474-21.813,5.425-4.774,11.493-6.087,17.086-3.7,6.513,2.778,10.107,6.423,10.681,10.837,1.264,9.718-12.224,20.348-12.361,20.454a.858.858,0,0,0-.289.94c2.312,7.151,10.033,9.775,20.657,7.013,9.937-2.581,20.862-9.458,28.508-17.947,9.047-10.042,12.876-21.39,10.782-31.954-6.507-32.825,7.988-54.062,15.6-62.591,1.2-1.118,2.382-2.292,3.555-3.5l3.512-2.657s16.087-9.558,1.69-11.374C239.441,340.856,219.9,375.536,192.658,383c-22.152,3.677-44.553,1.1-63.265-1.056-22.809-2.63-39.289-4.531-43.554,6.177-2.127,5.34-2.013,10.322.338,14.808,5.895,11.244,23.66,15.441,24.413,15.614a.857.857,0,0,0,.986-.509c4.27-10.393,11.306-15.539,19.309-14.141,7.872,1.385,14.536,8.74,14.854,16.4.327,7.865-6.148,14.13-17.767,17.188-8.055,2.12-20.007,2.451-32.075.181-47.85-19.863-38.276-62.766-35.481-72.263,9.839-11.97,28.062-17.2,56.121-16.212a.835.835,0,0,1-.064-.1.889.889,0,0,1,.448-1.177l.874-.39c-14.721-.6-26.722.475-36.332,3.237C64.2,355.715,54.213,366,50.936,382.206a60.176,60.176,0,0,0-1.216,10.4c.2-.185.33-.3.351-.316A.889.889,0,0,1,51.329,392.365Z"/>
    <path class="a" d="M49.718,395.044c.943-.894,1.493-1.378,1.542-1.422a.89.89,0,1,0-1.188-1.327c-.022.019-.147.13-.351.316Q49.689,393.84,49.718,395.044Z"/>
    <path class="a" d="M659.818,335.983q1.264.466,2.623,1c-.5-.842-1.02-1.674-1.553-2.5q-1.415-.528-2.713-.977C658.739,334.325,659.29,335.148,659.818,335.983Z"/>
    <path class="a" d="M616.148,300.354c-33.093-10.8-70.6-5.215-86.753-1.892,8.6-5.6,16.212-15.942,21.4-24.3,1.848-2.394,3.675-4.916,5.455-7.586,8.555-12.832,19.01-19.813,30.235-20.188a29.54,29.54,0,0,1,13.832,2.936c-5.784,9.617-5.727,18.862.2,25.469,6.517,7.268,18.322,9.372,27.462,4.9,10.552-5.17,14.894-17.529,11.911-33.907-2.949-16.185-13.049-27.5-28.44-31.852-21.639-6.124-56.293,1.961-84.913,33.832-30.136,33.557-63.351,32-71.919,30.934l11.99-7.068c.383-.176,29.821-17.906,41.383-76.593,6.049-30.707,5.9-95.382-33.015-143.006C447.042,17.845,414.5.348,360.217.021l-.863-.012c-.221,0-.442-.009-.668-.009l-.641.009c-2.058-.006-4.132.024-6.16.086l-.879.03c-.872.031-1.742.068-2.606.111-51.032,2.136-81.138,20.2-107.523,53.7-33.188,42.129-36.93,96.812-33.231,129.62a169.886,169.886,0,0,0,3.886,23.122c4.869,20.183,11.17,33.8,22.046,46.2,10.37,13.859,19.665,19.116,19.858,19.2,7.651,3.845,11.115,9.133,11.777,14.574a9.4,9.4,0,0,1-4.505,9.257c-8.982,5.8-24.071.641-35.2-6.117-7.492-4.551-15.217-10.176-23.4-16.131-28.672-20.877-61.172-44.54-95.339-28.549C96.9,249.725,86.644,256,78.48,270.522c-7.29,14.087-6.4,33.339-1,42.482,10.125,17.14,38.037,23.848,56.235,18.394,9.471-2.838,14.485-8.536,14.118-16.044-.414-8.485-3.253-14.371-8.438-17.492-9.22-5.553-22.882-.639-27,1.065.032-2.937.692-10.516,6.285-15.635,5.31-4.861,13.654-6.353,24.8-4.429,14.416,2.485,24.3,11.64,34.761,21.332,5.973,5.533,12.286,11.379,19.888,16.332-29.359,8.508-73.309,27.862-80.335,30.986q1.955.08,3.973.2c12.752-5.577,52.274-22.514,78.4-29.9a73.724,73.724,0,0,0,35.211,10.8c-11.306,5.745-54.668,26.032-94.02,20.981q-10.482-1.343-19.593-1.88c-1.632.714-2.821,1.239-3.491,1.537q10.526.462,22.866,2.045a103.34,103.34,0,0,0,13.147.81c42.148,0,84.275-23.212,84.74-23.471,6.517-4.671,10.006-5.717,4.424-7.811-5.323-2-18.148,6.147-32.009.861a70.212,70.212,0,0,1-9.064-4.486q-1.07-.627-2.108-1.281c-7.873-4.956-14.422-11.011-20.867-16.981-10.654-9.87-20.718-19.192-35.635-21.765-11.7-2.018-20.542-.38-26.262,4.866-7.65,7.015-6.834,17.8-6.8,18.257a.858.858,0,0,0,1.219.7c.165-.078,16.617-7.664,26.574-1.668,4.664,2.808,7.225,8.227,7.609,16.106.437,8.963-7.893,12.818-12.9,14.317a47.669,47.669,0,0,1-17.861,1.645c-40.912-13.346-35.433-53.271-33.306-63.458C89.6,256.257,98.7,250.777,107.5,246.659c33.248-15.562,65.313,7.785,93.6,28.382,8.209,5.977,15.962,11.623,23.516,16.211,22.2,13.486,33.946,8.072,37.016,6.091.151-.1.279-.211.424-.313-.261.2-.424.313-.424.313s35.249-11.522-9.81-47.15c-40.047-31.665-40.4-110.936-40.111-125.569,4.435-23.412,13.6-48.17,30.509-69.63C268.286,21.911,297.962,4.064,348.478,1.95q1.3-.065,2.584-.111l.873-.03c2.011-.063,4.068-.094,6.109-.085l.641-.009c.214,0,.424,0,.634.008l.877.013c53.756.323,85.855,17.609,113.45,51.376,38.514,47.13,38.652,111.176,32.66,141.589-11.381,57.778-40.04,75.193-40.462,75.389L452.658,277.8a.827.827,0,0,0-.162.112l-.732.648a.858.858,0,0,0,.379,1.484c.4.088,40.207,8.356,75.669-31.135,24.353-27.12,57.776-40.516,83.17-33.327,14.728,4.168,24.395,15,27.218,30.509,2.836,15.568-1.166,27.252-10.978,32.059a20.706,20.706,0,0,1-5.59,1.774c-26.539-4.6-19.38-30.465-19.38-30.465a.858.858,0,0,0-.279-1.192c-.24-.145-23.243-13.642-44.082,13.1h0q-1.543,1.98-3.067,4.26c-.944,1.416-1.9,2.776-2.87,4.113-22.933,25.817-77.268,35.929-77.268,35.929s26.952.8,46.538-3.573c.081-.018.162-.047.243-.067a.9.9,0,0,0,.3-.04c1.5-.412,51.385-13.865,93.843,0a83.8,83.8,0,0,1,42.559,31.524q1.3.449,2.713.977A85.317,85.317,0,0,0,616.148,300.354Z"/>
    <path class="a" d="M116.474,349.081a.835.835,0,0,0,.064.1q.864.031,1.739.069c.671-.3,1.86-.823,3.491-1.537q-2.019-.119-3.973-.2l-.874.39A.889.889,0,0,0,116.474,349.081Z"/>
  </g>
</svg>
