<svg xmlns="http://www.w3.org/2000/svg" width="1580.231" height="1840" viewBox="0 0 1580.231 1840">
  <defs>
    <style>
      .a {
        fill: #fff;
      }
    </style>
  </defs>
  <title>cncfi-stacked-white</title>
  <g>
    <path class="a" d="M117.629,1273.049s57.983,35.747,114.077,37.693c0,0-31.07-94.58-13.937-177.825C217.769,1132.916,156.931,1159.73,117.629,1273.049Z" transform="translate(-3.95)"/>
    <line class="a" x1="1477.141" y1="1143.199" x2="1391.691" y2="1172.813"/>
    <path class="a" d="M1316.675,1358.581s-233.762,131.086-379.86-40.548c0,0-7.579,37.6-47.569,82.5-7.208,11.181-16.05,11.122-11.84,16.838,4.824,6.548,18.9,6.968,27.976,12.394,45.365,21.444,147.356,35.849,203.55,30.415C1235.146,1449.989,1316.675,1358.581,1316.675,1358.581Z" transform="translate(-3.95)"/>
    <path class="a" d="M1352.967,1069.964s32.106,57.726,35.709,104.09c0,0,62.485-2.926,119.953-48.509C1508.629,1125.545,1454.111,1083.736,1352.967,1069.964Z" transform="translate(-3.95)"/>
    <path class="a" d="M1153.91,517s121.71-75.878,189.267-16.083c0,0-16.225-42.128-81.147-35.842S1153.91,517,1153.91,517Z" transform="translate(-3.95)"/>
    <path class="a" d="M643.081,354.136c-16.075-25.707-44.2-37.11-62.813-25.469s-20.674,41.917-4.6,67.624,44.2,37.11,62.813,25.469S659.156,379.843,643.081,354.136Zm-32.106,6.159a10.071,10.071,0,1,1,10.071-10.071A10.071,10.071,0,0,1,610.975,360.295Z" transform="translate(-3.95)"/>
    <path class="a" d="M938.121,328.667c-18.615-11.641-46.738-.238-62.813,25.469s-14.016,55.983,4.6,67.624,46.738.238,62.813-25.469S956.736,340.308,938.121,328.667ZM929,360.295a10.071,10.071,0,1,1,10.071-10.071A10.071,10.071,0,0,1,929,360.295Z" transform="translate(-3.95)"/>
    <circle class="a" cx="527.442" cy="200.7" r="26.502"/>
    <circle class="a" cx="568.327" cy="123.848" r="25.74"/>
    <circle class="a" cx="627.356" cy="75.268" r="20.331"/>
    <circle class="a" cx="601.781" cy="197.084" r="15.315"/>
    <circle class="a" cx="527.442" cy="274.214" r="22.402"/>
    <path class="a" d="M1041.209,220.238S1010.092,79.081,879.688,40.7C728.275-3.868,746.181,49,775.411,63.689,823.04,87.63,956.745,54.937,1041.209,220.238Z" transform="translate(-3.95)"/>
    <path class="a" d="M1250.772,638.45s130.564,3,162.154,114.776C1412.926,753.227,1386.653,674.571,1250.772,638.45Z" transform="translate(-3.95)"/>
    <path class="a" d="M1233.382,903.1s40.206-23.651,63.856,18.329C1297.238,921.43,1267.084,898.962,1233.382,903.1Z" transform="translate(-3.95)"/>
    <path class="a" d="M1045.818,772.743s47.136,40.022,58.966,101.8Z" transform="translate(-3.95)"/>
    <path class="a" d="M783.839,1057.957s18.692-15.908,41.76-5.966,14.318,38.578,14.318,38.578S834.746,1047.616,783.839,1057.957Z" transform="translate(-3.95)"/>
    <path class="a" d="M336.629,933.926s12.257-10.967,29.03-5.161,17.418,20,14.838,27.74C380.5,956.506,377.917,931.346,336.629,933.926Z" transform="translate(-3.95)"/>
    <path class="a" d="M255.479,878.853s13.726-18.164,31.889-10.547,18.75,25.781,18.75,25.781S292.143,871.236,255.479,878.853Z" transform="translate(-3.95)"/>
    <path class="a" d="M255.479,645.663s16.536-10.084,32.67-4.034,18.459,20.84,17.969,31.6C306.118,673.226,294.742,645.663,255.479,645.663Z" transform="translate(-3.95)"/>
    <path class="a" d="M242.422,530.305s34.951-18.041,83.127,0,92.573,56.77,92.573,56.77S322.715,522.655,242.422,530.305Z" transform="translate(-3.95)"/>
    <path class="a" d="M1343.177,728.272" transform="translate(-3.95)"/>
    <path class="a" d="M536.4,766.14s-45.922,33.767-40.52,104C495.879,870.141,516.139,787.751,536.4,766.14Z" transform="translate(-3.95)"/>
    <path class="a" d="M652.885,823.642s-28.024,19.629-41.909,97.788Z" transform="translate(-3.95)"/>
    <path class="a" d="M185.927,812.189s11.852-35.481,72.059-14.147C257.986,798.042,206.786,789.833,185.927,812.189Z" transform="translate(-3.95)"/>
    <path class="a" d="M1016,1000.688s21.386,81.3,17.387,105.288C1033.39,1105.976,1046.595,1060.662,1016,1000.688Z" transform="translate(-3.95)"/>
    <path class="a" d="M882.78,1163.269s17.686-14.282,37.566-6.068c22.063,9.116,17.368,23.9,17.368,23.9S916.495,1155.649,882.78,1163.269Z" transform="translate(-3.95)"/>
    <g>
      <path class="a" d="M560.145,632.1s.345-.232.9-.664C560.738,631.654,560.466,631.9,560.145,632.1Z" transform="translate(-3.95)"/>
      <path class="a" d="M1574.4,897.381c-29.44-120.627-119.026-168.966-165.506-186.319,1.134,1.754,2.241,3.523,3.3,5.313,46.805,18.472,130.432,66.789,158.529,181.9,18.28,74.9,10.619,136.951-22.772,184.422-51.806,73.664-148.6,87.878-158.66,89.166a237.209,237.209,0,0,0-34.714-101.016,1.893,1.893,0,0,0-3.217,2c86.5,139.16,3.368,266.089-94.108,332.5-159.8,108.873-356.065,21.783-379.419,10.735,28.369-28.963,49.357-61.835,60.21-95.674a1.894,1.894,0,0,0-3.609-1.154c-20.1,62.67-75.61,122.045-148.484,158.83-98.678,49.8-219.793,54.683-341.03,13.758-149.73-50.546-202.665-144.868-220.7-215.1-19.576-76.191-3.5-141.316-3.339-141.966a1.892,1.892,0,0,0-3.668-.932c-.168.658-16.464,66.582,3.3,143.685a289.948,289.948,0,0,0,9.984,31.342c-10.771-1.034-57.521-6.835-103.469-32.525-47.993-26.831-107.444-81.825-118.115-191.44C-3.8,954.332,90.665,857.781,109.642,839.8q-.059-2.559.006-5.173c-10,9.065-118.159,110.418-104.508,250.661,10.835,111.315,71.329,167.182,120.167,194.449,49.871,27.846,100.662,32.6,106.68,33.077,41.84,105.043,136.169,157.115,211.721,182.621,54.8,18.5,109.565,27.7,162.307,27.7,64.892,0,126.706-13.943,181.64-41.669a343.881,343.881,0,0,0,87.338-62.545c10.937,5.279,95.512,44.35,197.811,44.35,59.867,0,125.823-13.4,186.578-54.794,104.571-71.244,136.485-157.212,130.24-232.84,9.746-1.236,108.492-15.52,161.409-90.735C1585.089,1036.5,1592.953,973.4,1574.4,897.381Z" transform="translate(-3.95)"/>
      <path class="a" d="M113.067,834.1a1.894,1.894,0,0,1-.148,2.673c-.1.093-1.273,1.123-3.278,3.023.56,24.363,9.592,44.943,27.025,61.395,37.437,35.332,105.51,41.479,140.261,32.336,26.5-6.976,41.258-21.635,40.484-40.218-.746-17.893-16.261-35.071-34.59-38.295-8.786-1.546-30.506-1.56-44.438,30.8-7.089-1.9-37.6-11.1-48.008-30.961-4.479-8.55-4.667-18.113-.558-28.43,8.033-20.172,41.906-16.264,88.783-10.858,67.876,7.83,158.376,18.261,231.049-38.278-16.208,23.648-34.307,64.752-22.956,122.012,9.3,46.93-41.678,91.664-80.864,101.845-9.634,2.5-32.406,6.292-39.113-11.328,5.4-4.44,29.3-25.386,26.625-46-1.4-10.756-9.771-19.479-24.893-25.925-13.253-5.658-27.515-2.635-40.161,8.49-18.576,16.347-33.305,51.458-24.012,84.328,5.468,19.339,21.229,43.984,65.268,51.57,51.222,8.828,97.072-1.892,132.611-30.992,32.926-26.958,55.873-68.23,66.36-119.358a217.737,217.737,0,0,1,16.46-49.621c7.947-13.639,20.109-33.177,33.546-50.018,1.085-1.181,2.161-2.33,3.213-3.419a176.314,176.314,0,0,1,31.379-25.956c-14.694,22.376-59.432,97.553-61.48,185.733-1.654,26.652.727,56.985,12.933,84.892,24.41,66.9,80.885,103.795,130.13,110.971,45.071,6.558,84.309-11.223,104.953-47.6,19.752-34.8,10.229-54.716,2.795-63.486-11.392-13.439-32.279-18.08-50.8-11.29-19.812,7.265-31.825,25.683-32.372,49.456-7.068.354-35.923.439-55.351-19.87-16.929-17.7-22.569-46.016-16.764-84.161,8.568-56.309,34.887-81.759,62.75-108.7,25.284-24.453,53.562-51.8,71.516-105.96-1.356,34.247,7.263,97.937,74.712,160.2,68.021,62.788,76.564,123.323,75.6,153.821-.917,29.057-11.252,59.469-27.725,73.6-4.8-3.668-20.575-19.494-39.441-17.322-10,1.163-20.914,4.638-27.745,13.71-15.11,20.072-14.906,41.823.548,58.184,10.285,10.886,26.217,18.078,43.711,19.73q3.861.363,7.721.363a83.883,83.883,0,0,0,30.173-5.647l.012,0h-.007a84.35,84.35,0,0,0,16.432-8.516c30.244-20.179,54.511-56.551,64.918-97.3,8.6-33.686,12.085-86.17-20.208-144.884a470.933,470.933,0,0,1-26.225-57.084L983.4,887.471c39.09,84.839,93.69,118.845,136.142,132.057,64.362,20.027,128.072.539,162.641-27.668,22.359-18.237,32.461-40.206,28.453-61.862-3.614-19.536-18.439-36.272-37.768-42.64-16.862-5.551-33.862-1.9-46.633,10.024-25.32,23.646-9.45,49.9-4.632,56.636-23.812,15.25-44.017,19.384-60.065,12.287-21.278-9.412-35.88-38.323-43.4-85.937-9.708-61.482-51.93-108.36-64.707-121.341,31.64,1.658,79.8-10.071,146.847-35.687,57.738-22.06,101.033-23.158,128.677-3.268,29.838,21.468,31.625,61.449,31.666,69.7-26.065,3.887-42.077,16.9-44.02,35.873-2.013,19.647,12.014,40.494,31.934,47.462,11.245,3.934,40.382,8.422,68.064-34.688,17.458-27.183,20.3-61.19,7.987-95.752a151.049,151.049,0,0,0-12.4-26.3q-2.884-1.138-5.577-2.13a148.852,148.852,0,0,1,14.54,29.652c11.921,33.473,9.215,66.345-7.619,92.557-10.275,16-22.014,26.827-34.195,31.992-51.537-8.389-53.124-46.536-52.263-58.723,7.083-8.573,19.285-14.381,35.593-16.553a1.82,1.82,0,0,0,1.582-1.731c.021-.489,1.671-49.24-33.141-74.309-28.7-20.667-73.152-19.727-132.132,2.8-100.963,34.918-185.923,2.2-185.923,2.2l34.294,36.039c.56.515,56.055,52.271,67.185,122.766,7.726,48.915,23.042,78.758,45.525,88.7,43.977,21.646,85.4-5.99,85.4-5.99-8.652-2.06-19.829-10.35-19.829-10.35-.976-1.144-23.577-28.344,3.094-53.253,11.767-10.991,27.432-14.357,43.005-9.224,18.08,5.957,31.946,21.594,35.322,39.841,3.754,20.284-5.9,41.016-27.174,58.372-33.814,27.592-96.17,46.643-159.253,27.01-48.837-15.2-114.069-58.462-152.217-177.5l-3.916-12.782s-17.441-54.1-20.16-72.535c0,0-33.874,113.214,59.917,202.283l-.024-.079q6.157,13.224,12.712,25.169c31.718,57.669,28.313,109.175,19.87,142.225-10.19,39.9-33.893,75.472-63.408,95.164a80.209,80.209,0,0,1-25.033,11.115c-54.686-4.176-73.735-39.614-78.215-50.175a51.989,51.989,0,0,1,9.6-19.825c6.2-8.239,16.27-11.232,25.235-12.279a34.179,34.179,0,0,1,3.963-.228c18.588,0,33.75,17.519,33.937,17.675a1.822,1.822,0,0,0,2.315.012c17.935-14.571,29.22-46.493,30.192-77.245.98-31.118-7.688-92.844-76.773-156.613-87.578-80.845-74.394-163.755-70.861-179.553,7.791-30.633-22.365-3.773-28.3,29.865-2.786,15.8-30.957,70.748-59.179,102.4-3.676,3.6-7.3,7.223-10.837,10.943l-.006.005h0c-21.079,22.175-39.015,47.817-45.881,92.931-5.416,35.591-1.007,62.979,13.031,81.623l-.223-.222c20.637,41.274,77.394,45.114,77.394,45.114A31.887,31.887,0,0,1,762.9,1093.3c0-33.155,20.979-44.428,30-47.735,17.108-6.28,36.337-2.07,46.758,10.224,6.819,8.047,15.473,26.452-3.184,59.329-19.873,35.016-57.719,52.135-101.255,45.791a146.054,146.054,0,0,1-42.061-13.146C580.816,1066.512,606.68,894.483,606.738,894.1c18.645-67.232,53.374-115.016,53.933-115.773,0,0,18.614-23.41,7.76-31-19.926-13.929-59.152,35.428-86.8,113.538a221.357,221.357,0,0,0-16.689,50.342c-10.316,50.295-32.827,90.845-65.1,117.269-23.219,19.01-51,29.934-81.859,32.521-98.515-14.629-110.282-71.157-111.678-85.5,3.354-19.269,13.116-36.448,24.392-46.371,11.532-10.148,24.432-12.94,36.322-7.876,13.846,5.9,21.485,13.655,22.707,23.038,2.687,20.659-25.987,43.257-26.278,43.483a1.825,1.825,0,0,0-.615,2c4.915,15.2,21.328,20.78,43.914,14.908,21.125-5.487,44.348-20.106,60.6-38.152,19.232-21.347,27.372-45.472,22.92-67.929-13.834-69.78,16.982-114.928,33.161-133.058,2.55-2.377,5.064-4.873,7.558-7.442l7.467-5.648s34.2-20.318,3.592-24.179c-29.088-3.669-70.63,70.055-128.541,85.921-47.091,7.816-94.713,2.342-134.49-2.245-48.489-5.591-83.523-9.633-92.589,13.132-4.522,11.351-4.28,21.943.719,31.478,12.531,23.9,50.3,32.825,51.9,33.193a1.822,1.822,0,0,0,2.1-1.083c9.078-22.093,24.034-33.034,41.048-30.061,16.734,2.944,30.9,18.579,31.578,34.855C314.465,910.182,300.7,923.5,276,930c-17.124,4.506-42.531,5.211-68.187.384-101.72-42.226-81.368-133.43-75.427-153.62,20.915-25.447,59.655-36.574,119.3-34.464a1.775,1.775,0,0,1-.136-.214,1.891,1.891,0,0,1,.952-2.5c.295-.132.927-.415,1.857-.829-31.294-1.276-56.807,1.009-77.237,6.882-36.7,10.552-57.929,32.423-64.894,66.867a127.924,127.924,0,0,0-2.584,22.119c.434-.394.7-.63.747-.671A1.889,1.889,0,0,1,113.067,834.1Z" transform="translate(-3.95)"/>
      <path class="a" d="M109.642,839.8c2.005-1.9,3.174-2.93,3.278-3.023a1.893,1.893,0,1,0-2.525-2.821c-.046.041-.312.277-.747.671Q109.582,837.24,109.642,839.8Z" transform="translate(-3.95)"/>
      <path class="a" d="M1406.615,714.244q2.688.991,5.577,2.13c-1.061-1.79-2.168-3.559-3.3-5.313q-3.008-1.123-5.767-2.077C1404.321,710.72,1405.491,712.47,1406.615,714.244Z" transform="translate(-3.95)"/>
      <path class="a" d="M1313.78,638.5c-70.349-22.969-150.076-11.087-184.422-4.023,18.28-11.9,34.464-33.891,45.5-51.657,3.929-5.089,7.812-10.45,11.6-16.127,18.187-27.279,40.413-42.12,64.274-42.917a62.8,62.8,0,0,1,29.406,6.241c-12.3,20.445-12.175,40.1.418,54.143,13.854,15.45,38.95,19.924,58.379,10.408,22.432-10.991,31.661-37.263,25.322-72.081-6.268-34.406-27.739-58.454-60.459-67.712-46-13.019-119.669,4.169-180.51,71.921-64.063,71.336-134.675,68.019-152.888,65.76l25.488-15.025c.814-.374,63.4-38.065,87.974-162.825,12.859-65.279,12.548-202.767-70.184-304.008C954.289,37.936,885.109.74,769.711.045L767.877.019c-.47-.01-.94-.019-1.42-.019l-1.363.019C760.72.006,756.311.07,752,.2L750.13.266c-1.853.066-3.7.145-5.54.236C636.1,5.043,572.1,43.448,516.013,114.652c-70.552,89.559-78.507,205.805-70.644,275.552a361.15,361.15,0,0,0,8.262,49.154c10.351,42.905,23.746,71.848,46.866,98.2,22.045,29.461,41.8,40.638,42.215,40.816,16.265,8.175,23.628,19.415,25.035,30.982.966,7.956-2.524,15.128-9.578,19.679-19.094,12.321-51.171,1.363-74.821-13C467.421,606.362,451,594.4,433.61,581.744c-60.953-44.381-130.041-94.686-202.674-60.69-20.988,9.821-42.8,23.159-60.149,54.031-15.5,29.946-13.614,70.873-2.133,90.31,21.524,36.436,80.86,50.7,119.546,39.1,20.133-6.033,30.792-18.147,30.013-34.108-.881-18.039-6.915-30.55-17.938-37.185-19.6-11.8-48.643-1.358-57.388,2.264.068-6.243,1.471-22.355,13.36-33.237,11.287-10.334,29.026-13.506,52.72-9.415,30.645,5.283,51.654,24.745,73.9,45.349,12.7,11.763,26.119,24.19,42.279,34.72-62.412,18.086-155.843,59.229-170.778,65.872q4.155.169,8.446.422c27.108-11.855,111.125-47.861,166.669-63.566,19.734,12.055,43.558,21.134,74.852,22.959-24.035,12.212-116.216,55.339-199.87,44.6q-22.282-2.856-41.651-4c-3.469,1.517-6,2.634-7.422,3.267q22.377.981,48.61,4.347a219.684,219.684,0,0,0,27.949,1.723c89.6-.006,179.156-49.345,180.143-49.9,13.854-9.929,21.271-12.154,9.4-16.6-11.315-4.243-38.58,13.068-68.045,1.831a149.26,149.26,0,0,1-19.268-9.536q-2.275-1.333-4.481-2.723c-16.737-10.536-30.659-23.407-44.359-36.1-22.65-20.982-44.043-40.8-75.754-46.268-24.883-4.289-43.668-.808-55.829,10.344-16.263,14.913-14.528,37.843-14.448,38.811a1.824,1.824,0,0,0,2.591,1.5c.35-.165,35.325-16.292,56.493-3.546,9.915,5.969,15.358,17.489,16.176,34.239.929,19.055-16.779,27.249-27.418,30.436a101.337,101.337,0,0,1-37.97,3.5c-86.971-28.37-75.324-113.246-70.8-134.9,16.043-24.84,35.4-36.491,54.1-45.244,70.68-33.082,138.845,16.55,198.982,60.335C448.915,597.4,465.4,609.4,481.456,619.153c47.2,28.67,72.164,17.16,78.69,12.949.321-.207.593-.448.9-.664-.555.433-.9.664-.9.664s74.935-24.493-20.855-100.234c-85.134-67.315-85.883-235.832-85.27-266.939,9.427-49.769,28.92-102.4,64.857-148.021C574.282,46.579,637.367,8.64,744.757,4.146q2.753-.139,5.494-.235l1.855-.064c4.275-.133,8.647-.2,12.988-.18l1.363-.019c.455,0,.9.009,1.349.018l1.865.027c114.277.687,182.514,37.433,241.176,109.217,81.875,100.192,82.167,236.342,69.429,300.995-24.194,122.827-85.118,159.849-86.015,160.265l-28.034,16.384a1.758,1.758,0,0,0-.344.237l-1.555,1.378a1.824,1.824,0,0,0,.8,3.154c.845.186,85.474,17.763,160.861-66.188,51.771-57.653,122.822-86.131,176.806-70.848,31.31,8.86,51.859,31.893,57.861,64.856,6.028,33.094-2.479,57.934-23.337,68.153a44.017,44.017,0,0,1-11.883,3.771c-56.417-9.789-41.2-64.763-41.2-64.763a1.824,1.824,0,0,0-.594-2.535c-.511-.309-49.411-29-93.71,27.846v0l0,0q-3.28,4.209-6.52,9.056c-2.006,3.009-4.047,5.9-6.1,8.743-48.751,54.883-164.26,76.378-164.26,76.378s57.3,1.693,98.933-7.595c.173-.039.344-.1.516-.141a1.924,1.924,0,0,0,.648-.084c3.182-.875,109.236-29.476,199.5,0,37.1,12.115,69.406,36.486,90.474,67.014q2.755.955,5.767,2.077C1387.488,677.949,1353.293,651.406,1313.78,638.5Z" transform="translate(-3.95)"/>
      <path class="a" d="M251.554,742.088a1.775,1.775,0,0,0,.136.214q1.836.065,3.7.146c1.426-.633,3.953-1.75,7.422-3.267q-4.292-.253-8.446-.422c-.93.414-1.562.7-1.857.829A1.891,1.891,0,0,0,251.554,742.088Z" transform="translate(-3.95)"/>
    </g>
  </g>
  <g>
    <path class="a" d="M448.744,1731.817a26.731,26.731,0,0,0-9.834-8.407,28.931,28.931,0,0,0-13.643-3.331q-18.083,0-28.076,10.787T387.2,1759.1q0,17.451,9.993,28.235t28.076,10.786a25.639,25.639,0,0,0,13.643-3.49,41.584,41.584,0,0,0,9.834-8.249l31.408,32.994A60.686,60.686,0,0,1,453.98,1835.4a98.486,98.486,0,0,1-28.712,4.6,97.178,97.178,0,0,1-33.47-5.71,80.5,80.5,0,0,1-27.283-16.338,76.58,76.58,0,0,1-18.242-25.539,86.611,86.611,0,0,1,0-66.623,76.671,76.671,0,0,1,18.242-25.539,80.574,80.574,0,0,1,27.283-16.338,97.167,97.167,0,0,1,33.47-5.71,98.486,98.486,0,0,1,28.712,4.6,60.736,60.736,0,0,1,26.173,16.021Z" transform="translate(-3.95)"/>
    <path class="a" d="M497.282,1682.009h45.684v20.938h.635a38.532,38.532,0,0,1,6.345-8.883,46.214,46.214,0,0,1,9.835-7.931,56.315,56.315,0,0,1,13.008-5.71,54.357,54.357,0,0,1,15.862-2.221q18.083,0,29.187,5.552a42.255,42.255,0,0,1,17.291,15.387,62.263,62.263,0,0,1,8.406,23.159,176.235,176.235,0,0,1,2.222,28.87v85.023H598.168v-75.506q0-6.662-.476-13.8a43.566,43.566,0,0,0-2.855-13.166,22.763,22.763,0,0,0-7.3-9.834q-4.922-3.807-14.118-3.807t-14.91,3.331a22.712,22.712,0,0,0-8.725,8.883,36.275,36.275,0,0,0-3.966,12.531,107.967,107.967,0,0,0-.951,14.593v76.775H497.282Z" transform="translate(-3.95)"/>
    <path class="a" d="M783.756,1731.817a26.731,26.731,0,0,0-9.834-8.407,28.931,28.931,0,0,0-13.643-3.331q-18.083,0-28.076,10.787T722.21,1759.1q0,17.451,9.993,28.235t28.076,10.786a25.639,25.639,0,0,0,13.643-3.49,41.584,41.584,0,0,0,9.834-8.249l31.408,32.994a60.686,60.686,0,0,1-26.173,16.021,98.486,98.486,0,0,1-28.712,4.6,97.178,97.178,0,0,1-33.47-5.71,80.5,80.5,0,0,1-27.283-16.338,76.58,76.58,0,0,1-18.242-25.539,86.611,86.611,0,0,1,0-66.623,76.671,76.671,0,0,1,18.242-25.539,80.574,80.574,0,0,1,27.283-16.338,97.167,97.167,0,0,1,33.47-5.71,98.486,98.486,0,0,1,28.712,4.6,60.736,60.736,0,0,1,26.173,16.021Z" transform="translate(-3.95)"/>
    <path class="a" d="M848.791,1720.079H817.383v-38.07h31.408v-27.284a123.581,123.581,0,0,1,2.221-23.953,48.564,48.564,0,0,1,8.565-19.828q6.343-8.566,18.242-13.483t31.249-4.917q7.295,0,14.276.634a97.387,97.387,0,0,1,13.642,2.221l-2.221,40.291a56.558,56.558,0,0,0-7.614-2.379,36.173,36.173,0,0,0-7.931-.793q-11.421,0-17.132,4.917t-5.711,20.146v24.429h35.215v38.07H896.378v116.114H848.791Z" transform="translate(-3.95)"/>
    <path class="a" d="M950.627,1808.909a29.706,29.706,0,0,1,2.221-11.421,28.053,28.053,0,0,1,15.546-15.545,30.479,30.479,0,0,1,22.842,0,28.047,28.047,0,0,1,15.545,15.545,30.468,30.468,0,0,1,0,22.842,28.044,28.044,0,0,1-15.545,15.545,30.479,30.479,0,0,1-22.842,0,28.05,28.05,0,0,1-15.546-15.545A29.673,29.673,0,0,1,950.627,1808.909Z" transform="translate(-3.95)"/>
    <path class="a" d="M1147.953,1731.817a26.731,26.731,0,0,0-9.834-8.407,28.931,28.931,0,0,0-13.643-3.331q-18.083,0-28.076,10.787t-9.993,28.235q0,17.451,9.993,28.235t28.076,10.786a25.639,25.639,0,0,0,13.643-3.49,41.584,41.584,0,0,0,9.834-8.249l31.408,32.994a60.686,60.686,0,0,1-26.173,16.021,98.486,98.486,0,0,1-28.712,4.6,97.178,97.178,0,0,1-33.47-5.71,80.5,80.5,0,0,1-27.283-16.338,76.58,76.58,0,0,1-18.242-25.539,86.611,86.611,0,0,1,0-66.623,76.671,76.671,0,0,1,18.242-25.539,80.574,80.574,0,0,1,27.283-16.338,97.167,97.167,0,0,1,33.47-5.71,98.486,98.486,0,0,1,28.712,4.6,60.736,60.736,0,0,1,26.173,16.021Z" transform="translate(-3.95)"/>
    <path class="a" d="M1193.318,1633.47a27.62,27.62,0,1,1,8.09,19.511A26.591,26.591,0,0,1,1193.318,1633.47Zm3.808,48.54h47.587v154.184h-47.587Z" transform="translate(-3.95)"/>
  </g>
</svg>
