<svg xmlns="http://www.w3.org/2000/svg" width="1580.231" height="1839.751" viewBox="0 0 1580.231 1839.751">
  <defs>
    <style>
      .a {
        fill: #fff;
      }

      .b {
        fill: #aef;
      }

      .c {
        fill: #446ba9;
      }

      .d {
        fill: #00c7e6;
      }

      .e {
        fill: #001321;
      }
    </style>
  </defs>
  <title>cncfci-stacked-color</title>
  <g>
    <path class="a" d="M431.043,673.475s-110.7,35.405-179.49,68.862l-143.667,97.3S61.214,879.884,30.257,949.655c0,0-32.147,70.723-23.336,138.589S43.354,1212.3,67.643,1233.615c0,0,53.806,64.142,164.063,77.376,0,0,28.457,57.085,53.107,83.72A353.93,353.93,0,0,0,409.59,1481.15c58.817,24.051,138.57,39.487,175.5,40.719s137.16-5,200.025-40.481,90.028-64.3,90.028-64.3,74.67,38.776,185.5,44.317,194.088-48.623,207.5-61.265,70.809-48.643,98.209-112.371,23.513-97.515,22.322-113.467c0,0,103.3-16.954,150.23-76.56,0,0,48.286-54.165,43.185-135.095s-35.2-133.446-51.006-156.439-33.664-49.967-124.115-93.492l-204.209-47.7H475.284Z" transform="translate(-3.95 -0.249)"/>
    <path class="b" d="M117.629,1273.3s57.983,35.747,114.077,37.693c0,0-31.07-94.58-13.937-177.825C217.769,1133.166,156.931,1159.98,117.629,1273.3Z" transform="translate(-3.95 -0.249)"/>
    <line class="b" x1="1477.141" y1="1143.199" x2="1391.691" y2="1172.813"/>
    <path class="b" d="M1316.675,1358.83s-233.762,131.086-379.86-40.548c0,0-7.579,37.6-47.569,82.5-7.208,11.181-16.05,11.122-11.84,16.838,4.824,6.548,18.9,6.968,27.976,12.394,45.365,21.444,147.356,35.849,203.55,30.415C1235.146,1450.239,1316.675,1358.83,1316.675,1358.83Z" transform="translate(-3.95 -0.249)"/>
    <path class="b" d="M1352.967,1070.213s32.106,57.726,35.709,104.09c0,0,62.485-2.926,119.953-48.509C1508.629,1125.794,1454.111,1083.986,1352.967,1070.213Z" transform="translate(-3.95 -0.249)"/>
    <g>
      <path class="c" d="M1574.4,897.63c-40.208-164.749-192.623-194.666-194.158-194.949a1.872,1.872,0,0,0-2.2,1.518,1.89,1.89,0,0,0,1.516,2.205c1.512.279,151.553,29.812,191.17,192.124,18.28,74.9,10.619,136.951-22.772,184.422-51.806,73.664-148.6,87.878-158.66,89.166a237.2,237.2,0,0,0-34.714-101.016,1.893,1.893,0,1,0-3.217,2c86.5,139.16,3.368,266.089-94.108,332.5-159.8,108.873-356.065,21.783-379.419,10.735,28.369-28.963,49.357-61.835,60.21-95.674a1.894,1.894,0,1,0-3.609-1.154c-20.1,62.67-75.61,122.045-148.484,158.83-98.678,49.8-219.793,54.683-341.03,13.758-149.73-50.546-202.665-144.868-220.7-215.1-19.576-76.191-3.5-141.315-3.339-141.966a1.892,1.892,0,0,0-3.668-.932c-.168.658-16.464,66.582,3.3,143.685a290.008,290.008,0,0,0,9.984,31.342c-10.771-1.034-57.52-6.835-103.469-32.525-47.993-26.831-107.444-81.826-118.115-191.44C-5.146,940.783,111.834,838,112.919,837.025a1.893,1.893,0,1,0-2.525-2.821c-1.1.985-119.5,105-105.255,251.332,10.835,111.315,71.329,167.182,120.167,194.45,49.871,27.846,100.662,32.6,106.68,33.077,41.84,105.043,136.169,157.115,211.721,182.621,54.8,18.5,109.565,27.7,162.307,27.7,64.892,0,126.706-13.943,181.64-41.669a343.886,343.886,0,0,0,87.338-62.545c10.937,5.279,95.512,44.35,197.811,44.35,59.867,0,125.823-13.4,186.578-54.794,104.571-71.244,136.485-157.211,130.24-232.84,9.746-1.236,108.492-15.52,161.409-90.735C1585.089,1036.746,1592.953,973.654,1574.4,897.63Z" transform="translate(-3.95 -0.249)"/>
      <path class="c" d="M253.282,743.455a1.883,1.883,0,0,0,.773-.166c1.492-.667,153.925-68.739,208.157-74.5a1.892,1.892,0,1,0-.4-3.764c-54.831,5.823-203.192,72.068-209.307,74.81a1.893,1.893,0,0,0,.777,3.62Z" transform="translate(-3.95 -0.249)"/>
    </g>
    <path class="d" d="M1313.214,640.487c-92.758-30.289-200.618,0-200.618,0l-.088.057a288.973,288.973,0,0,0,72.425-74.609c45.433-68.149,97.767-36.357,97.767-36.357-48.878,77.2,100.35,106.577,79.754-6.511-17.349-95.257-148.889-93.929-237.818,5.1-75.55,84.13-159.109,65.625-159.109,65.625.526-.46,1.035-.921,1.558-1.382l22.967-12.3,6.293-3.369s61.041-36.951,85.721-162.239c24.6-124.865-21.923-412.389-312.384-412.389-.223,0-.447-.007-.67-.009-.859,0-1.691-.036-2.554-.036-.462,0-.906.018-1.367.019q-6.513-.018-13.039.182c-.623.017-1.235.045-1.856.064-1.843.066-3.685.165-5.53.236C470.067,13.1,426.737,292.1,450.849,414.507,475.529,539.795,543.531,577,543.531,577c18.379,9.237,24.69,21.408,26.025,32.392,2.936,24.163-31.621,42.186-87.155,8.454-72.627-44.115-158.8-137.9-250.693-94.889-17.884,8.37-41.25,21.1-59.3,53.217-15.552,30.052-12.893,70.412-2.182,88.545,32.133,54.4,148.586,55.567,146.167,6.011-3.222-66.007-75.263-32.254-75.263-32.254s-5.048-59.825,68.149-47.2S400.158,694.65,511.2,697.278c0,0-108.533,60.577-206.971,47.957S128.47,741.646,114.02,813.116c-22.56,111.576,109.753,132.766,162.445,118.9,92.31-24.3-3.1-126.3-37.009-43.79,0,0-69.729-16.031-51.333-62.22,22.021-55.291,220.463,58.706,343.269-70.673,0,0-61.674,49.213-42.909,143.87,14.444,72.859-108.77,137.111-123.914,90.258,0,0,58.936-45.858,3.165-69.636-55.863-23.818-112.525,121.166,2.119,140.916,107.414,18.5,176.683-50.481,196.875-148.918S659.2,777.491,659.2,777.491,569.253,899.2,599.542,1030.451s186.284,177.864,238.522,85.817c49.4-87.052-76.984-103.485-76.984-22.716,0,0-93.389,10.1-75.721-106.01,17.54-115.265,107.211-101.2,140.614-236.818-3.679,16.451-16.813,99.857,71.405,181.29,98.438,90.865,87.052,198.291,46.667,231.1,6.017,5-40.113-38.929-65.758-4.863-40.106,53.276,39.379,99.36,96.122,61.5s99.652-138.822,44.122-239.784c-26.484-48.153-44.34-106.041-55.79-153.451h0c67.887,233.358,246.355,222.863,318.291,164.179s-9-133.346-53.553-91.734c-28.249,26.384-3.238,55.766-3.238,55.766-66.256,43.54-96.544-1.893-107.9-73.828s-67.753-123.822-67.753-123.822v0c28.106,2.906,73.374-5.518,151.045-35.19,168.48-64.363,162.8,69.726,162.8,69.726-98.476,13.106-10.54,144.449,52.638,46.074C1457.9,770.991,1405.972,670.776,1313.214,640.487Z" transform="translate(-3.95 -0.249)"/>
    <path class="a" d="M1153.91,517.246s121.71-75.878,189.267-16.083c0,0-16.225-42.128-81.147-35.842S1153.91,517.246,1153.91,517.246Z" transform="translate(-3.95 -0.249)"/>
    <ellipse class="e" cx="909.013" cy="375.463" rx="54.898" ry="39.754" transform="translate(104.758 946.869) rotate(-57.981)"/>
    <ellipse class="e" cx="609.375" cy="375.463" rx="39.754" ry="54.898" transform="translate(-110.318 379.961) rotate(-32.019)"/>
    <circle class="a" cx="607.025" cy="350.224" r="10.071"/>
    <circle class="a" cx="925.054" cy="350.224" r="10.071"/>
    <circle class="c" cx="527.442" cy="200.7" r="26.502"/>
    <circle class="c" cx="568.327" cy="123.848" r="25.74"/>
    <circle class="c" cx="627.356" cy="75.268" r="20.331"/>
    <circle class="c" cx="601.781" cy="197.084" r="15.315"/>
    <circle class="c" cx="527.442" cy="274.214" r="22.402"/>
    <path class="a" d="M1041.209,220.487S1010.092,79.331,879.688,40.948C728.275-3.619,746.181,49.246,775.41,63.939,823.04,87.88,956.745,55.186,1041.209,220.487Z" transform="translate(-3.95 -0.249)"/>
    <path class="a" d="M1250.772,638.7s130.564,3,162.154,114.776C1412.926,753.476,1386.653,674.82,1250.772,638.7Z" transform="translate(-3.95 -0.249)"/>
    <path class="a" d="M1233.382,903.35s40.206-23.651,63.856,18.329C1297.238,921.679,1267.084,899.211,1233.382,903.35Z" transform="translate(-3.95 -0.249)"/>
    <path class="a" d="M1045.818,772.992s47.136,40.022,58.966,101.8Z" transform="translate(-3.95 -0.249)"/>
    <path class="a" d="M783.839,1058.206s18.692-15.908,41.76-5.966,14.318,38.578,14.318,38.578S834.746,1047.866,783.839,1058.206Z" transform="translate(-3.95 -0.249)"/>
    <path class="a" d="M336.629,934.176s12.257-10.967,29.03-5.161,17.418,20,14.838,27.74C380.5,956.755,377.917,931.6,336.629,934.176Z" transform="translate(-3.95 -0.249)"/>
    <path class="a" d="M255.479,879.1s13.726-18.164,31.889-10.547,18.75,25.781,18.75,25.781S292.143,871.486,255.479,879.1Z" transform="translate(-3.95 -0.249)"/>
    <path class="a" d="M255.479,645.912s16.536-10.084,32.67-4.034,18.459,20.84,17.969,31.6C306.118,673.475,294.742,645.912,255.479,645.912Z" transform="translate(-3.95 -0.249)"/>
    <path class="a" d="M242.422,530.555s34.951-18.041,83.127,0,92.573,56.77,92.573,56.77S322.715,522.9,242.422,530.555Z" transform="translate(-3.95 -0.249)"/>
    <path class="c" d="M1343.177,728.522" transform="translate(-3.95 -0.249)"/>
    <path class="a" d="M536.4,766.39s-45.922,33.767-40.52,104C495.879,870.391,516.139,788,536.4,766.39Z" transform="translate(-3.95 -0.249)"/>
    <path class="a" d="M652.885,823.892s-28.024,19.629-41.909,97.788Z" transform="translate(-3.95 -0.249)"/>
    <path class="a" d="M185.927,812.439s11.852-35.481,72.059-14.147C257.986,798.292,206.786,790.083,185.927,812.439Z" transform="translate(-3.95 -0.249)"/>
    <path class="a" d="M1016,1000.937s21.386,81.3,17.387,105.288C1033.39,1106.225,1046.594,1060.911,1016,1000.937Z" transform="translate(-3.95 -0.249)"/>
    <path class="a" d="M882.78,1163.518s17.686-14.282,37.566-6.068c22.063,9.116,17.368,23.9,17.368,23.9S916.495,1155.9,882.78,1163.518Z" transform="translate(-3.95 -0.249)"/>
    <path class="c" d="M1424.591,742.922c-16.9-47.454-59.36-87.368-110.811-104.168-70.349-22.969-150.076-11.087-184.422-4.023,18.28-11.9,34.464-33.891,45.5-51.657,3.929-5.089,7.812-10.45,11.6-16.127,18.187-27.279,40.413-42.12,64.274-42.917a62.8,62.8,0,0,1,29.406,6.241c-12.3,20.445-12.175,40.1.418,54.143,13.854,15.45,38.95,19.924,58.379,10.408,22.432-10.991,31.661-37.263,25.322-72.081-6.268-34.406-27.739-58.454-60.459-67.712-46-13.019-119.669,4.169-180.51,71.921-64.063,71.336-134.675,68.019-152.888,65.76l25.488-15.025c.814-.374,63.4-38.065,87.974-162.825,12.859-65.279,12.548-202.767-70.184-304.008C954.289,38.186,885.109.989,769.711.295L767.877.268c-.47-.009-.94-.019-1.42-.019l-1.363.019c-4.375-.013-8.784.051-13.1.183L750.13.515c-1.853.066-3.7.145-5.54.236C636.1,5.292,572.1,43.7,516.013,114.9c-70.552,89.559-78.507,205.806-70.644,275.552a361.122,361.122,0,0,0,8.262,49.154c10.351,42.905,23.746,71.848,46.866,98.2,22.045,29.461,41.8,40.638,42.215,40.816,16.265,8.175,23.628,19.415,25.035,30.982.966,7.956-2.524,15.128-9.578,19.679-19.094,12.321-51.171,1.363-74.821-13-15.927-9.674-32.35-21.632-49.738-34.292-60.953-44.381-130.041-94.686-202.674-60.69-20.988,9.821-42.8,23.159-60.149,54.031-15.5,29.946-13.614,70.873-2.133,90.31,21.524,36.436,80.86,50.7,119.546,39.1,20.133-6.033,30.792-18.147,30.013-34.108-.881-18.039-6.915-30.55-17.938-37.185-19.6-11.8-48.643-1.358-57.388,2.264.068-6.243,1.471-22.355,13.36-33.237,11.287-10.334,29.026-13.506,52.72-9.415,30.645,5.283,51.654,24.745,73.9,45.349,28.858,26.733,61.434,56.907,121.469,60.408-24.035,12.212-116.216,55.339-199.87,44.6-55.266-7.084-96.922-6.279-127.334,2.463-36.7,10.553-57.929,32.423-64.894,66.867-7.394,36.569.827,66.409,24.435,88.687,37.437,35.332,105.51,41.479,140.261,32.335,26.5-6.976,41.258-21.635,40.484-40.218-.746-17.893-16.262-35.071-34.59-38.295-8.786-1.546-30.506-1.56-44.438,30.8-7.088-1.9-37.6-11.1-48.008-30.961-4.479-8.55-4.667-18.113-.558-28.43,8.033-20.172,41.906-16.264,88.783-10.858,67.876,7.83,158.376,18.261,231.049-38.278-16.208,23.648-34.307,64.752-22.956,122.012,9.3,46.93-41.678,91.664-80.864,101.845-9.634,2.5-32.407,6.292-39.113-11.328,5.4-4.44,29.3-25.386,26.625-46-1.4-10.756-9.771-19.479-24.893-25.925-13.253-5.658-27.514-2.635-40.161,8.49-18.576,16.347-33.305,51.458-24.012,84.328,5.468,19.339,21.229,43.984,65.268,51.57,51.222,8.828,97.072-1.892,132.611-30.992,32.925-26.958,55.873-68.23,66.36-119.358a217.739,217.739,0,0,1,16.46-49.621c7.947-13.639,20.109-33.177,33.546-50.018,1.085-1.181,2.161-2.33,3.213-3.419a176.308,176.308,0,0,1,31.379-25.956c-14.694,22.376-59.432,97.553-61.48,185.733-1.654,26.652.726,56.986,12.933,84.892,24.41,66.9,80.885,103.795,130.13,110.971,45.071,6.558,84.309-11.223,104.953-47.6,19.752-34.8,10.228-54.716,2.795-63.486-11.392-13.438-32.278-18.08-50.8-11.29-19.812,7.265-31.825,25.683-32.372,49.456-7.068.354-35.923.439-55.351-19.87-16.929-17.7-22.569-46.016-16.764-84.162,8.568-56.309,34.887-81.759,62.75-108.7,25.284-24.453,53.562-51.8,71.516-105.96-1.356,34.247,7.263,97.937,74.712,160.2,68.021,62.788,76.564,123.323,75.6,153.821-.916,29.057-11.252,59.469-27.725,73.6-4.8-3.668-20.575-19.494-39.441-17.322-10,1.163-20.914,4.638-27.745,13.71-15.11,20.072-14.906,41.823.548,58.184,10.285,10.886,26.217,18.078,43.711,19.73q3.861.363,7.721.363a83.882,83.882,0,0,0,30.173-5.647l.012,0h-.007a84.336,84.336,0,0,0,16.432-8.516c30.244-20.179,54.511-56.551,64.918-97.3,8.6-33.686,12.085-86.17-20.208-144.884a470.891,470.891,0,0,1-26.225-57.084L983.4,887.72c39.09,84.839,93.69,118.845,136.142,132.057,64.362,20.027,128.072.539,162.641-27.668,22.359-18.237,32.461-40.206,28.454-61.862-3.614-19.536-18.439-36.272-37.768-42.64-16.862-5.551-33.862-1.9-46.633,10.024-25.319,23.646-9.45,49.9-4.632,56.636-23.812,15.25-44.017,19.384-60.065,12.287-21.278-9.412-35.88-38.323-43.4-85.937-9.708-61.482-51.931-108.36-64.707-121.341,31.64,1.658,79.8-10.071,146.848-35.687,57.738-22.06,101.033-23.158,128.677-3.268,29.838,21.468,31.626,61.449,31.666,69.7-26.065,3.887-42.077,16.9-44.019,35.873-2.013,19.647,12.014,40.494,31.934,47.462,11.245,3.934,40.382,8.422,68.064-34.688C1434.062,811.49,1436.9,777.483,1424.591,742.922ZM1413.536,836.7c-10.275,16-22.014,26.827-34.195,31.993-51.537-8.389-53.124-46.536-52.263-58.723,7.083-8.573,19.285-14.381,35.593-16.553a1.819,1.819,0,0,0,1.581-1.731c.021-.489,1.672-49.24-33.14-74.309-28.7-20.667-73.152-19.727-132.132,2.8-100.963,34.918-185.923,2.2-185.923,2.2l34.294,36.039c.56.515,56.055,52.271,67.185,122.766,7.726,48.915,23.042,78.758,45.525,88.7,43.976,21.646,85.4-5.99,85.4-5.99-8.652-2.06-19.829-10.35-19.829-10.35-.976-1.144-23.577-28.344,3.094-53.253,11.767-10.991,27.433-14.357,43.006-9.224,18.08,5.957,31.946,21.594,35.322,39.841,3.754,20.284-5.9,41.016-27.174,58.372-33.815,27.592-96.171,46.643-159.253,27.01-48.837-15.2-114.069-58.462-152.217-177.5l-3.916-12.782s-17.441-54.1-20.16-72.535c0,0-33.874,113.214,59.916,202.283l-.024-.079q6.157,13.224,12.712,25.169c31.718,57.669,28.313,109.175,19.87,142.225-10.19,39.9-33.893,75.472-63.408,95.164a80.2,80.2,0,0,1-25.033,11.115c-54.686-4.176-73.735-39.614-78.215-50.175a51.99,51.99,0,0,1,9.6-19.825c6.2-8.239,16.27-11.232,25.235-12.279a34.174,34.174,0,0,1,3.963-.228c18.588,0,33.75,17.519,33.937,17.675a1.822,1.822,0,0,0,2.315.012c17.935-14.571,29.22-46.493,30.191-77.245.981-31.117-7.688-92.844-76.773-156.613C811.036,849.83,824.22,766.92,827.753,751.121c7.791-30.633-22.364-3.773-28.3,29.865-2.786,15.8-30.957,70.748-59.179,102.4-3.676,3.6-7.3,7.223-10.837,10.943l-.006.005h0c-21.079,22.175-39.015,47.817-45.881,92.931-5.416,35.591-1.007,62.979,13.031,81.623l-.223-.222c20.637,41.274,77.394,45.114,77.394,45.114a31.886,31.886,0,0,1-10.853-20.23c0-33.155,20.979-44.428,30-47.735,17.108-6.28,36.337-2.07,46.758,10.224,6.819,8.046,15.473,26.452-3.184,59.329-19.873,35.016-57.719,52.135-101.255,45.791a146.053,146.053,0,0,1-42.061-13.146c-112.346-81.252-86.483-253.281-86.425-253.667,18.644-67.233,53.373-115.016,53.933-115.773,0,0,18.614-23.41,7.76-31C648.5,733.646,609.278,783,581.632,861.113a221.356,221.356,0,0,0-16.689,50.342c-10.316,50.295-32.827,90.845-65.1,117.269-23.22,19.01-51,29.934-81.859,32.521-98.515-14.629-110.282-71.157-111.678-85.5,3.354-19.269,13.116-36.448,24.392-46.371,11.532-10.148,24.431-12.94,36.322-7.876,13.846,5.9,21.485,13.655,22.707,23.038,2.687,20.659-25.987,43.257-26.277,43.483a1.825,1.825,0,0,0-.615,2c4.915,15.2,21.328,20.78,43.914,14.908,21.125-5.487,44.348-20.105,60.6-38.152,19.232-21.347,27.372-45.472,22.92-67.928-13.834-69.78,16.982-114.928,33.161-133.058,2.55-2.377,5.065-4.873,7.558-7.442l7.467-5.648s34.2-20.318,3.592-24.179c-29.088-3.669-70.63,70.055-128.54,85.921-47.091,7.816-94.713,2.342-134.491-2.245-48.489-5.591-83.523-9.633-92.589,13.132-4.522,11.351-4.28,21.943.719,31.478,12.532,23.9,50.3,32.825,51.9,33.193a1.822,1.822,0,0,0,2.1-1.083c9.078-22.093,24.034-33.034,41.048-30.061,16.734,2.944,30.9,18.579,31.578,34.855.7,16.72-13.07,30.037-37.769,36.538-17.124,4.506-42.531,5.211-68.187.384-101.72-42.226-81.368-133.43-75.427-153.619,26.5-32.243,81.587-41.515,171.611-29.971a219.672,219.672,0,0,0,27.949,1.723c89.6-.006,179.156-49.345,180.143-49.9,13.854-9.929,21.271-12.154,9.4-16.6-11.315-4.243-38.58,13.068-68.045,1.831-28.3-11.508-48.426-30.125-68.108-48.358-22.65-20.982-44.043-40.8-75.754-46.268-24.883-4.289-43.668-.808-55.829,10.344-16.263,14.913-14.528,37.843-14.448,38.811a1.824,1.824,0,0,0,2.592,1.5c.35-.165,35.325-16.292,56.493-3.546,9.915,5.969,15.358,17.489,16.176,34.238.93,19.055-16.779,27.249-27.418,30.436a101.337,101.337,0,0,1-37.97,3.5c-86.971-28.37-75.324-113.246-70.8-134.9,16.043-24.84,35.4-36.491,54.1-45.244,70.68-33.082,138.845,16.55,198.982,60.335,17.451,12.706,33.933,24.708,49.992,34.462,47.2,28.67,72.164,17.16,78.69,12.949.321-.207.593-.448.9-.665-.555.433-.9.665-.9.665s74.935-24.493-20.855-100.234c-85.134-67.315-85.883-235.832-85.27-266.939,9.428-49.769,28.921-102.4,64.858-148.021C574.282,46.828,637.367,8.889,744.757,4.395q2.753-.139,5.494-.235l1.856-.064c4.275-.133,8.647-.2,12.987-.18l1.363-.019c.455,0,.9.009,1.349.018l1.865.027c114.277.687,182.514,37.433,241.176,109.217,81.875,100.192,82.167,236.342,69.429,300.995C1056.082,536.981,995.158,574,994.26,574.419L966.226,590.8a1.759,1.759,0,0,0-.344.237l-1.555,1.378a1.824,1.824,0,0,0,.8,3.154c.845.186,85.474,17.763,160.861-66.188,51.771-57.653,122.822-86.131,176.806-70.848,31.31,8.86,51.859,31.893,57.861,64.856,6.028,33.094-2.479,57.934-23.337,68.153a44.019,44.019,0,0,1-11.883,3.771c-56.417-9.789-41.2-64.763-41.2-64.763a1.824,1.824,0,0,0-.594-2.535c-.511-.309-49.411-29-93.71,27.846v0l0,0q-3.28,4.209-6.52,9.056c-2.006,3.009-4.047,5.9-6.1,8.743-48.751,54.883-164.26,76.378-164.26,76.378s57.3,1.693,98.933-7.595c.173-.039.343-.1.516-.141a1.924,1.924,0,0,0,.648-.084c3.182-.875,109.236-29.476,199.5,0,50.4,16.457,91.975,55.513,108.505,101.926C1433.076,777.619,1430.37,810.491,1413.536,836.7Z" transform="translate(-3.95 -0.249)"/>
  </g>
  <g>
    <path class="c" d="M448.744,1731.817a26.731,26.731,0,0,0-9.834-8.407,28.931,28.931,0,0,0-13.643-3.331q-18.083,0-28.076,10.787T387.2,1759.1q0,17.451,9.993,28.235t28.076,10.786a25.639,25.639,0,0,0,13.643-3.49,41.584,41.584,0,0,0,9.834-8.249l31.408,32.994A60.686,60.686,0,0,1,453.98,1835.4a98.486,98.486,0,0,1-28.712,4.6,97.178,97.178,0,0,1-33.47-5.71,80.5,80.5,0,0,1-27.283-16.338,76.58,76.58,0,0,1-18.242-25.539,86.611,86.611,0,0,1,0-66.623,76.671,76.671,0,0,1,18.242-25.539,80.574,80.574,0,0,1,27.283-16.338,97.167,97.167,0,0,1,33.47-5.71,98.486,98.486,0,0,1,28.712,4.6,60.736,60.736,0,0,1,26.173,16.021Z" transform="translate(-3.95 -0.249)"/>
    <path class="c" d="M497.282,1682.009h45.684v20.938h.635a38.532,38.532,0,0,1,6.345-8.883,46.214,46.214,0,0,1,9.835-7.931,56.315,56.315,0,0,1,13.008-5.71,54.357,54.357,0,0,1,15.862-2.221q18.083,0,29.187,5.552a42.255,42.255,0,0,1,17.291,15.387,62.263,62.263,0,0,1,8.406,23.159,176.235,176.235,0,0,1,2.222,28.87v85.023H598.168v-75.506q0-6.662-.476-13.8a43.566,43.566,0,0,0-2.855-13.166,22.763,22.763,0,0,0-7.3-9.834q-4.922-3.807-14.118-3.807t-14.91,3.331a22.712,22.712,0,0,0-8.725,8.883,36.275,36.275,0,0,0-3.966,12.531,107.967,107.967,0,0,0-.951,14.593v76.775H497.282Z" transform="translate(-3.95 -0.249)"/>
    <path class="c" d="M783.756,1731.817a26.731,26.731,0,0,0-9.834-8.407,28.931,28.931,0,0,0-13.643-3.331q-18.083,0-28.076,10.787T722.21,1759.1q0,17.451,9.993,28.235t28.076,10.786a25.639,25.639,0,0,0,13.643-3.49,41.584,41.584,0,0,0,9.834-8.249l31.408,32.994a60.686,60.686,0,0,1-26.173,16.021,98.486,98.486,0,0,1-28.712,4.6,97.178,97.178,0,0,1-33.47-5.71,80.5,80.5,0,0,1-27.283-16.338,76.58,76.58,0,0,1-18.242-25.539,86.611,86.611,0,0,1,0-66.623,76.671,76.671,0,0,1,18.242-25.539,80.574,80.574,0,0,1,27.283-16.338,97.167,97.167,0,0,1,33.47-5.71,98.486,98.486,0,0,1,28.712,4.6,60.736,60.736,0,0,1,26.173,16.021Z" transform="translate(-3.95 -0.249)"/>
    <path class="c" d="M848.791,1720.079H817.383v-38.07h31.408v-27.284a123.581,123.581,0,0,1,2.221-23.953,48.564,48.564,0,0,1,8.565-19.828q6.343-8.566,18.242-13.483t31.249-4.917q7.295,0,14.276.634a97.387,97.387,0,0,1,13.642,2.221l-2.221,40.291a56.558,56.558,0,0,0-7.614-2.379,36.173,36.173,0,0,0-7.931-.793q-11.421,0-17.132,4.917t-5.711,20.146v24.429h35.215v38.07H896.378v116.114H848.791Z" transform="translate(-3.95 -0.249)"/>
    <path class="c" d="M950.627,1808.909a29.706,29.706,0,0,1,2.221-11.421,28.053,28.053,0,0,1,15.546-15.545,30.479,30.479,0,0,1,22.842,0,28.047,28.047,0,0,1,15.545,15.545,30.468,30.468,0,0,1,0,22.842,28.044,28.044,0,0,1-15.545,15.545,30.479,30.479,0,0,1-22.842,0,28.05,28.05,0,0,1-15.546-15.545A29.673,29.673,0,0,1,950.627,1808.909Z" transform="translate(-3.95 -0.249)"/>
    <path class="c" d="M1147.953,1731.817a26.731,26.731,0,0,0-9.834-8.407,28.931,28.931,0,0,0-13.643-3.331q-18.083,0-28.076,10.787t-9.993,28.235q0,17.451,9.993,28.235t28.076,10.786a25.639,25.639,0,0,0,13.643-3.49,41.584,41.584,0,0,0,9.834-8.249l31.408,32.994a60.686,60.686,0,0,1-26.173,16.021,98.486,98.486,0,0,1-28.712,4.6,97.178,97.178,0,0,1-33.47-5.71,80.5,80.5,0,0,1-27.283-16.338,76.58,76.58,0,0,1-18.242-25.539,86.611,86.611,0,0,1,0-66.623,76.671,76.671,0,0,1,18.242-25.539,80.574,80.574,0,0,1,27.283-16.338,97.167,97.167,0,0,1,33.47-5.71,98.486,98.486,0,0,1,28.712,4.6,60.736,60.736,0,0,1,26.173,16.021Z" transform="translate(-3.95 -0.249)"/>
    <path class="c" d="M1193.318,1633.47a27.62,27.62,0,1,1,8.09,19.511A26.591,26.591,0,0,1,1193.318,1633.47Zm3.808,48.54h47.587v154.184h-47.587Z" transform="translate(-3.95 -0.249)"/>
  </g>
</svg>
