<svg xmlns="http://www.w3.org/2000/svg" width="1801" height="1801" viewBox="0 0 1801 1801">
  <defs>
    <style>
      .a {
        fill: #fff;
      }
    </style>
  </defs>
  <title>crosscloudci-icon-white</title>
  <path class="a" d="M172.8,1450.746s62.378,38.456,122.723,40.549c0,0-33.425-101.749-14.993-191.3C280.525,1299.993,215.076,1328.839,172.8,1450.746Z"/>
  <line class="a" x1="1639.597" y1="1311.055" x2="1547.67" y2="1342.913"/>
  <path class="a" d="M1462.719,1542.761s-251.479,141.022-408.65-43.622c0,0-8.154,40.445-51.174,88.748-7.754,12.028-17.267,11.965-12.737,18.114,5.189,7.044,20.336,7.5,30.1,13.334,48.8,23.069,158.524,38.566,218.978,32.72C1375.011,1641.1,1462.719,1542.761,1462.719,1542.761Z"/>
  <path class="a" d="M1501.762,1232.269s34.539,62.1,38.415,111.979c0,0,67.221-3.148,129.044-52.185C1669.221,1292.062,1610.572,1247.085,1501.762,1232.269Z"/>
  <path class="a" d="M1287.618,637.391s130.935-81.629,203.612-17.3c0,0-17.455-45.321-87.3-38.558S1287.618,637.391,1287.618,637.391Z"/>
  <path class="a" d="M738.072,462.187c-17.294-27.655-47.547-39.922-67.574-27.4s-22.241,45.094-4.947,72.749,47.547,39.922,67.573,27.4S755.366,489.842,738.072,462.187Zm-34.54,6.625a10.834,10.834,0,1,1,10.834-10.834A10.834,10.834,0,0,1,703.533,468.813Z"/>
  <path class="a" d="M1055.473,434.788c-20.026-12.523-50.28-.256-67.574,27.4s-15.078,60.226,4.948,72.749,50.28.256,67.573-27.4S1075.5,447.311,1055.473,434.788Zm-9.807,34.025a10.834,10.834,0,1,1,10.834-10.834A10.834,10.834,0,0,1,1045.666,468.813Z"/>
  <circle class="a" cx="617.918" cy="297.121" r="28.511"/>
  <circle class="a" cx="661.901" cy="214.445" r="27.691"/>
  <circle class="a" cx="725.405" cy="162.183" r="21.872"/>
  <circle class="a" cx="697.892" cy="293.232" r="16.475"/>
  <circle class="a" cx="617.918" cy="376.207" r="24.1"/>
  <path class="a" d="M1166.375,318.14S1132.9,166.285,992.612,124.993c-162.888-47.944-143.625,8.928-112.18,24.734C931.671,175.482,1075.51,140.31,1166.375,318.14Z"/>
  <path class="a" d="M1391.821,768.05s140.46,3.222,174.444,123.476C1566.265,891.525,1538,806.908,1391.821,768.05Z"/>
  <path class="a" d="M1373.113,1052.759s43.253-25.443,68.7,19.718C1441.809,1072.477,1409.369,1048.307,1373.113,1052.759Z"/>
  <path class="a" d="M1171.333,912.521s50.708,43.055,63.435,109.515Z"/>
  <path class="a" d="M889.5,1219.352s20.109-17.114,44.925-6.418,15.4,41.5,15.4,41.5S944.264,1208.228,889.5,1219.352Z"/>
  <path class="a" d="M408.394,1085.921s13.186-11.8,31.231-5.552,18.738,21.514,15.962,29.843C455.587,1110.211,452.811,1083.145,408.394,1085.921Z"/>
  <path class="a" d="M321.093,1026.674s14.766-19.54,34.306-11.346,20.171,27.735,20.171,27.735S360.536,1018.479,321.093,1026.674Z"/>
  <path class="a" d="M321.093,775.809s17.789-10.848,35.146-4.339,19.858,22.42,19.331,33.991C375.57,805.461,363.331,775.809,321.093,775.809Z"/>
  <path class="a" d="M307.046,651.708s37.6-19.408,89.427,0,99.59,61.073,99.59,61.073S393.425,643.479,307.046,651.708Z"/>
  <path class="a" d="M623.3,905.418s-49.4,36.326-43.591,111.883C579.713,1017.3,601.509,928.666,623.3,905.418Z"/>
  <path class="a" d="M748.619,967.278s-30.148,21.117-45.086,105.2Z"/>
  <path class="a" d="M246.269,954.957s12.75-38.17,77.52-15.22C323.79,939.738,268.709,930.907,246.269,954.957Z"/>
  <path class="a" d="M1139.258,1157.742s23.006,87.46,18.705,113.268C1157.963,1271.01,1172.169,1222.262,1139.258,1157.742Z"/>
  <path class="a" d="M995.939,1332.646s19.026-15.365,40.413-6.528c23.735,9.807,18.685,25.711,18.685,25.711S1032.209,1324.449,995.939,1332.646Z"/>
  <g>
    <path class="a" d="M648.851,761.221s.372-.249.969-.715C649.488,760.739,649.2,761,648.851,761.221Z"/>
    <path class="a" d="M1739.973,1046.605c-31.671-129.769-128.047-181.772-178.05-200.441,1.22,1.887,2.411,3.79,3.552,5.716,50.353,19.872,140.318,71.851,170.544,195.691,19.665,80.579,11.424,147.33-24.5,198.4-55.732,79.247-159.863,94.539-170.685,95.924a255.187,255.187,0,0,0-37.345-108.672,2.036,2.036,0,0,0-3.46,2.148c93.059,149.707,3.623,286.256-101.241,357.705-171.915,117.125-383.052,23.434-408.176,11.549,30.519-31.159,53.1-66.521,64.774-102.925a2.038,2.038,0,0,0-3.882-1.241c-21.622,67.419-81.341,131.295-159.738,170.868-106.157,53.578-236.452,58.828-366.877,14.8-161.079-54.377-218.025-155.848-237.432-231.4C266.4,1372.764,283.691,1302.7,283.868,1302a2.036,2.036,0,0,0-3.946-1c-.181.708-17.712,71.628,3.548,154.576a311.924,311.924,0,0,0,10.741,33.717c-11.588-1.113-61.88-7.353-111.311-34.99-51.631-28.865-115.588-88.027-127.067-205.95C42.159,1107.873,143.788,1004,164.2,984.659q-.063-2.753.006-5.565c-10.757,9.752-127.114,118.787-112.429,269.659,11.656,119.752,76.735,179.853,129.274,209.187,53.651,29.956,108.292,35.074,114.765,35.584,45.011,113,146.489,169.023,227.767,196.462,58.949,19.9,117.869,29.8,174.608,29.8,69.81,0,136.309-15,195.407-44.827a369.945,369.945,0,0,0,93.957-67.285c11.766,5.679,102.752,47.712,212.8,47.712,64.4,0,135.36-14.415,200.719-58.947,112.5-76.644,146.829-169.127,140.111-250.487,10.485-1.33,116.715-16.7,173.642-97.612C1751.477,1196.265,1759.937,1128.392,1739.973,1046.605Z"/>
    <path class="a" d="M167.887,978.531a2.038,2.038,0,0,1-.159,2.876c-.112.1-1.369,1.208-3.526,3.252.6,26.21,10.319,48.35,29.074,66.048,40.274,38.01,113.507,44.623,150.892,34.786,28.511-7.5,44.385-23.274,43.553-43.266-.8-19.249-17.494-37.729-37.212-41.2-9.452-1.663-32.818-1.678-47.806,33.139-7.626-2.046-40.454-11.946-51.647-33.307-4.818-9.2-5.02-19.486-.6-30.585,8.642-21.7,45.082-17.5,95.512-11.681,73.02,8.424,170.379,19.645,248.561-41.18-17.436,25.44-36.908,69.659-24.7,131.26,10.009,50.487-44.837,98.612-86.993,109.564-10.364,2.692-34.863,6.769-42.077-12.186,5.807-4.776,31.523-27.31,28.643-49.486-1.5-11.571-10.512-20.955-26.78-27.89-14.258-6.087-29.6-2.835-43.205,9.134-19.984,17.586-35.83,55.358-25.832,90.719,5.883,20.8,22.838,47.317,70.215,55.478,55.1,9.5,104.429-2.036,142.662-33.34,35.421-29,60.108-73.4,71.39-128.4a234.239,234.239,0,0,1,17.708-53.382c8.549-14.673,21.633-35.692,36.088-53.809,1.168-1.271,2.325-2.507,3.457-3.678a189.677,189.677,0,0,1,33.757-27.923c-15.808,24.072-63.936,104.946-66.14,199.81-1.779,28.672.782,61.3,13.913,91.326,26.26,71.971,87.015,111.662,139.993,119.382,48.487,7.055,90.7-12.074,112.908-51.207,21.249-37.44,11-58.863,3.006-68.3-12.255-14.457-34.725-19.451-54.647-12.145-21.314,7.816-34.237,27.629-34.826,53.2-7.6.381-38.646.473-59.546-21.376-18.212-19.039-24.279-49.5-18.034-90.54,9.217-60.576,37.531-87.955,67.506-116.941,27.2-26.306,57.621-55.721,76.936-113.991-1.458,36.842,7.813,105.36,80.374,172.34,73.176,67.547,82.367,132.67,81.33,165.479-.986,31.259-12.1,63.976-29.826,79.174-5.16-3.946-22.134-20.972-42.43-18.635-10.761,1.252-22.5,4.99-29.847,14.749-16.255,21.594-16.036,44.993.59,62.594,11.065,11.711,28.2,19.448,47.024,21.226q4.153.391,8.306.391a90.241,90.241,0,0,0,32.46-6.075l.013,0h-.007a90.743,90.743,0,0,0,17.677-9.161c32.536-21.708,58.643-60.837,69.838-104.67,9.257-36.24,13-92.7-21.739-155.865a506.627,506.627,0,0,1-28.212-61.41l-11.3-36.886c42.053,91.269,100.791,127.852,146.461,142.066,69.24,21.545,137.778.58,174.968-29.765,24.053-19.619,34.921-43.254,30.61-66.551-3.887-21.016-19.836-39.021-40.63-45.872-18.14-5.972-36.429-2.046-50.168,10.784-27.239,25.438-10.166,53.68-4.983,60.929-25.617,16.406-47.353,20.853-64.617,13.218-22.891-10.125-38.6-41.228-46.686-92.451-10.444-66.142-55.866-116.573-69.611-130.537,34.038,1.784,85.846-10.834,157.977-38.392,62.114-23.732,108.691-24.913,138.43-3.516,32.1,23.1,34.022,66.106,34.066,74.988-28.041,4.181-45.267,18.186-47.356,38.592-2.166,21.136,12.924,43.563,34.355,51.059,12.1,4.232,43.442,9.06,73.222-37.318,18.781-29.244,21.834-65.828,8.592-103.009a162.5,162.5,0,0,0-13.338-28.291q-3.1-1.225-6-2.292a160.133,160.133,0,0,1,15.642,31.9c12.825,36.01,9.913,71.373-8.2,99.572-11.054,17.212-23.682,28.86-36.786,34.417-55.443-9.025-57.15-50.063-56.224-63.174,7.62-9.223,20.747-15.471,38.29-17.807a1.957,1.957,0,0,0,1.7-1.862c.023-.526,1.8-52.972-35.652-79.941-30.873-22.233-78.7-21.222-142.146,3.017-108.615,37.565-200.015,2.366-200.015,2.366l36.893,38.77c.6.554,60.3,56.233,72.277,132.071,8.312,52.623,24.789,84.727,48.975,95.424,47.31,23.287,91.87-6.444,91.87-6.444-9.308-2.216-21.332-11.135-21.332-11.135-1.05-1.231-25.364-30.493,3.328-57.289,12.659-11.824,29.512-15.446,46.265-9.923,19.451,6.409,34.367,23.231,38,42.86,4.038,21.821-6.342,44.125-29.233,62.8-36.377,29.683-103.459,50.178-171.323,29.057-52.538-16.349-122.715-62.893-163.754-190.954l-4.213-13.75s-18.763-58.2-21.688-78.033c0,0-36.441,121.795,64.458,217.614l-.026-.085q6.624,14.226,13.675,27.077c34.122,62.04,30.459,117.449,21.376,153-10.963,42.919-36.462,81.192-68.214,102.377a86.288,86.288,0,0,1-26.931,11.957c-58.831-4.493-79.324-42.616-84.143-53.977a55.93,55.93,0,0,1,10.324-21.327c6.672-8.863,17.5-12.083,27.148-13.209a36.769,36.769,0,0,1,4.263-.245c20,0,36.307,18.846,36.509,19.015a1.96,1.96,0,0,0,2.49.013c19.295-15.675,31.435-50.017,32.48-83.1,1.055-33.476-8.271-99.881-82.592-168.483-94.216-86.972-80.032-176.166-76.231-193.162,8.382-32.954-24.06-4.059-30.443,32.128-3,16.993-33.3,76.11-63.664,110.164-3.954,3.873-7.854,7.771-11.658,11.772l-.006.006,0,0c-22.677,23.856-41.972,51.441-49.358,99.974-5.826,38.288-1.084,67.752,14.018,87.81l-.24-.238c22.2,44.4,83.26,48.533,83.26,48.533a34.3,34.3,0,0,1-11.676-21.764c0-35.667,22.569-47.8,32.274-51.353,18.4-6.756,39.091-2.227,50.3,11,7.336,8.656,16.646,28.457-3.425,63.825-21.379,37.67-62.094,56.086-108.93,49.261a157.124,157.124,0,0,1-45.249-14.142c-120.861-87.41-93.037-272.478-92.975-272.893,20.058-72.328,57.419-123.733,58.021-124.548,0,0,20.025-25.185,8.348-33.348-21.436-14.985-63.635,38.114-93.377,122.143a238.134,238.134,0,0,0-17.954,54.158c-11.1,54.107-35.315,97.731-70.032,126.157-24.979,20.451-54.869,32.2-88.064,34.986-105.982-15.738-118.64-76.55-120.143-91.977,3.608-20.729,14.11-39.211,26.241-49.886,12.406-10.917,26.283-13.921,39.075-8.472,14.9,6.352,23.113,14.689,24.428,24.784,2.89,22.225-27.956,46.536-28.269,46.778a1.963,1.963,0,0,0-.661,2.151c5.287,16.355,22.945,22.355,47.242,16.038,22.726-5.9,47.709-21.629,65.2-41.044,20.689-22.965,29.447-48.919,24.657-73.077-14.882-75.069,18.269-123.638,35.674-143.142,2.743-2.557,5.448-5.243,8.131-8.006l8.033-6.076s36.79-21.858,3.864-26.011C598.09,860.733,553.4,940.044,491.1,957.113c-50.66,8.408-101.892,2.519-144.684-2.415-52.164-6.015-89.853-10.363-99.607,14.128-4.864,12.212-4.6,23.606.774,33.864,13.481,25.714,54.109,35.312,55.832,35.708a1.96,1.96,0,0,0,2.254-1.165c9.766-23.767,25.855-35.537,44.159-32.339,18,3.167,33.242,19.987,33.972,37.5.748,17.987-14.061,32.314-40.632,39.307-18.422,4.848-45.754,5.606-73.355.413-109.43-45.426-87.535-143.543-81.144-165.263,22.5-27.376,64.176-39.346,128.346-37.076a1.91,1.91,0,0,1-.147-.23,2.034,2.034,0,0,1,1.024-2.691c.317-.142,1-.447,2-.892-33.666-1.373-61.113,1.085-83.091,7.4-39.485,11.352-62.32,34.881-69.813,71.935a137.62,137.62,0,0,0-2.78,23.8c.467-.424.754-.678.8-.722A2.033,2.033,0,0,1,167.887,978.531Z"/>
    <path class="a" d="M164.2,984.659c2.157-2.044,3.415-3.152,3.526-3.252a2.036,2.036,0,1,0-2.717-3.035c-.049.044-.336.3-.8.722Q164.137,981.906,164.2,984.659Z"/>
    <path class="a" d="M1559.476,849.589q2.892,1.066,6,2.292c-1.141-1.926-2.332-3.828-3.552-5.716q-3.236-1.208-6.2-2.235C1557.008,845.8,1558.267,847.68,1559.476,849.589Z"/>
    <path class="a" d="M1459.6,768.108c-75.681-24.71-161.451-11.927-198.4-4.328,19.665-12.8,37.076-36.459,48.946-55.572,4.226-5.475,8.4-11.243,12.475-17.349,19.565-29.347,43.476-45.312,69.146-46.169a67.558,67.558,0,0,1,31.634,6.714c-13.228,21.995-13.1,43.136.45,58.247,14.9,16.62,41.9,21.434,62.8,11.2,24.132-11.824,34.061-40.088,27.241-77.544-6.743-37.014-29.841-62.884-65.041-72.844-49.489-14.006-128.739,4.485-194.192,77.372-68.919,76.742-144.882,73.174-164.475,70.744l27.42-16.164c.876-.4,68.2-40.95,94.642-175.166,13.834-70.226,13.5-218.135-75.5-327.049C1072.867,122.022,998.444,82.006,874.3,81.259l-1.973-.028c-.506-.01-1.011-.02-1.527-.02l-1.466.02c-4.706-.014-9.449.055-14.088.2l-2.01.069c-1.993.072-3.985.156-5.96.254-116.708,4.885-185.558,46.2-245.9,122.8-75.9,96.347-84.457,221.4-76,296.436a388.522,388.522,0,0,0,8.888,52.88c11.136,46.157,25.546,77.293,50.418,105.646,23.716,31.694,44.972,43.718,45.414,43.91,17.5,8.794,25.419,20.887,26.933,33.33,1.04,8.559-2.715,16.274-10.3,21.171-20.541,13.255-55.049,1.466-80.492-13.988-17.134-10.407-34.8-23.272-53.508-36.891-65.573-47.745-139.9-101.862-218.035-65.29-22.578,10.566-46.039,24.914-64.708,58.126-16.671,32.215-14.646,76.244-2.295,97.155,23.156,39.2,86.989,54.538,128.606,42.067,21.659-6.49,33.126-19.522,32.288-36.693-.948-19.406-7.439-32.865-19.3-40-21.086-12.7-52.33-1.461-61.737,2.435.073-6.716,1.582-24.05,14.373-35.756,12.143-11.117,31.226-14.53,56.715-10.129,32.968,5.683,55.569,26.62,79.5,48.786,13.66,12.655,28.1,26.023,45.483,37.351-67.142,19.456-167.655,63.718-183.722,70.865q4.47.182,9.086.455c29.162-12.754,119.547-51.488,179.3-68.384,21.23,12.968,46.859,22.736,80.526,24.7-25.857,13.138-125.024,59.533-215.019,47.983q-23.971-3.072-44.808-4.3c-3.732,1.632-6.451,2.834-7.984,3.514q24.073,1.056,52.295,4.677a236.334,236.334,0,0,0,30.067,1.853c96.39-.006,192.734-53.085,193.8-53.677,14.9-10.681,22.883-13.075,10.117-17.862-12.173-4.564-41.5,14.059-73.2,1.97a160.573,160.573,0,0,1-20.729-10.259q-2.448-1.434-4.821-2.93c-18.006-11.335-32.982-25.181-47.721-38.835-24.366-22.572-47.381-43.892-81.5-49.775-26.768-4.614-46.978-.87-60.061,11.128-17.5,16.043-15.629,40.711-15.543,41.753a1.962,1.962,0,0,0,2.788,1.612c.377-.177,38-17.527,60.775-3.815,10.667,6.421,16.522,18.815,17.4,36.834,1,20.5-18.051,29.314-29.5,32.743a109.018,109.018,0,0,1-40.848,3.763c-93.563-30.521-81.033-121.829-76.169-145.125,17.259-26.723,38.082-39.257,58.2-48.673,76.037-35.59,149.368,17.8,214.064,64.908,18.774,13.669,36.5,26.581,53.781,37.074,50.774,30.842,77.634,18.461,84.654,13.931.345-.223.637-.482.969-.715-.6.466-.969.715-.969.715s80.614-26.35-22.436-107.831c-91.586-72.417-92.392-253.706-91.733-287.171,10.142-53.541,31.112-110.163,69.773-159.24,59.6-75.661,127.47-116.475,243-121.31q2.962-.149,5.911-.253l2-.069c4.6-.143,9.3-.215,13.972-.194l1.466-.02c.489,0,.969.01,1.451.019l2.006.029c122.938.739,196.347,40.27,259.455,117.5,88.08,107.785,88.395,254.255,74.691,323.808-26.028,132.136-91.569,171.964-92.535,172.412l-30.158,17.626a1.892,1.892,0,0,0-.37.255l-1.673,1.483a1.962,1.962,0,0,0,.866,3.393c.909.2,91.953,19.11,173.053-71.2,55.7-62.022,132.131-92.659,190.207-76.217,33.683,9.531,55.79,34.31,62.247,69.772,6.485,35.6-2.667,62.325-25.106,73.318a47.353,47.353,0,0,1-12.784,4.057c-60.693-10.531-44.322-69.672-44.322-69.672a1.962,1.962,0,0,0-.638-2.727c-.55-.332-53.156-31.2-100.813,29.957v0l0,0q-3.529,4.528-7.014,9.743c-2.158,3.237-4.354,6.35-6.562,9.406-52.446,59.043-176.709,82.167-176.709,82.167s61.638,1.822,106.431-8.17c.186-.042.37-.108.555-.152a2.069,2.069,0,0,0,.7-.091c3.423-.941,117.516-31.71,214.615-.005,39.912,13.034,74.667,39.251,97.331,72.093q2.963,1.027,6.2,2.235C1538.9,810.542,1502.113,781.988,1459.6,768.108Z"/>
    <path class="a" d="M316.87,879.542a1.91,1.91,0,0,0,.147.23q1.975.07,3.977.157c1.534-.681,4.253-1.882,7.984-3.514q-4.617-.273-9.086-.455c-1,.445-1.681.749-2,.892A2.034,2.034,0,0,0,316.87,879.542Z"/>
  </g>
</svg>
