<svg id="Layer_1" data-name="Layer 1" xmlns="http://www.w3.org/2000/svg" viewBox="0 0 454.07586 396.43525"><defs><style>.cls-1{fill:#313032;}.cls-2{fill:#24272a;}.cls-3{fill:none;}.cls-4{fill:#00afaa;}.cls-5{fill:#66c9ba;}.cls-6{fill:#0069a7;}.cls-7{fill:#007da5;}.cls-8{fill:#002f87;}</style></defs><title>onap</title><polygon class="cls-1" points="7.628 386.289 204.622 386.289 7.628 263.374 7.628 386.289"/><polygon class="cls-2" points="442.612 386.289 442.612 262.949 244.891 386.289 442.612 386.289"/><polygon class="cls-2" points="7.628 10.621 7.628 130.831 200.299 10.621 7.628 10.621"/><polygon class="cls-2" points="442.612 10.621 253.837 10.621 442.612 128.408 442.612 10.621"/><polygon class="cls-3" points="140.151 195.452 228.457 250.563 318.826 194.162 230.507 139.061 140.151 195.452"/><polygon class="cls-4" points="230.507 139.061 145.143 85.814 54.846 142.199 140.151 195.452 230.507 139.061"/><polygon class="cls-4" points="318.826 194.162 404.138 140.928 315.819 85.804 230.507 139.061 318.826 194.162"/><polygon class="cls-5" points="315.819 85.804 230.507 32.564 145.143 85.814 230.507 139.061 315.819 85.804"/><polygon class="cls-6" points="140.151 195.452 54.846 248.716 143.144 303.813 228.457 250.563 140.151 195.452"/><polygon class="cls-7" points="54.846 142.199 48.722 145.991 48.722 244.898 54.846 248.716 140.151 195.452 54.846 142.199"/><polygon class="cls-6" points="228.457 250.563 313.206 303.473 312.263 304.796 404.138 247.432 318.826 194.162 228.457 250.563"/><polygon class="cls-7" points="409.489 144.265 404.138 140.928 318.826 194.162 404.138 247.432 409.489 244.105 409.489 144.265"/><polygon class="cls-8" points="228.457 250.563 143.144 303.813 228.457 357.077 312.263 304.796 313.206 303.473 228.457 250.563"/><polygon class="cls-7" points="140.151 195.452 230.507 139.061 318.826 194.162 228.457 250.563 140.151 195.452"/></svg>